<svg width="850" height="851" viewBox="0 0 850 851" fill="none" xmlns="http://www.w3.org/2000/svg">
<path fill-rule="evenodd" clip-rule="evenodd" d="M468.123 438.827C498.611 426.771 526.91 407.42 565.342 410.647C514.623 333.819 465.747 259.768 416.849 185.705L413.391 185.936C395.086 272.446 376.773 359.025 358.453 445.673C396.55 455.792 432.538 452.888 468.123 438.827Z" fill="#A9905A"/>
<path fill-rule="evenodd" clip-rule="evenodd" d="M351.302 564.754C352.812 564.846 354.321 564.754 355.831 564.754C405.479 566.264 452.66 553.424 499.794 540.205C533.834 530.673 568.185 522.202 602.523 513.8C610.975 511.725 619.926 511.748 628.657 510.815C629.387 509.409 630.118 508.014 630.858 506.608C624.667 500.361 619.336 490.473 612.095 488.721C599.543 485.88 586.511 485.903 573.969 488.79C538.123 497.169 502.768 507.611 467.161 517.05C434.95 525.778 401.756 530.345 368.384 530.639C359.497 530.639 350.587 529.221 341.376 528.426C340.351 532.241 339.498 535.053 338.864 537.923C338.23 540.793 337.861 543.812 337.25 546.74C333.976 562.599 334.944 563.867 351.302 564.754Z" fill="#A9905A"/>
<path fill-rule="evenodd" clip-rule="evenodd" d="M635.756 537.611C590.069 536.458 547.4 551.084 504.058 562.39C465.718 572.406 427.505 583.401 387.633 585.36C371.219 586.156 354.723 585.222 338.286 585.706C334.931 585.81 329.628 588.011 328.74 590.466C326.758 596.079 326.977 602.464 326.297 608.527C330.25 608.78 334.251 609.541 338.147 609.161C348.164 608.192 358.135 606.855 368.117 605.438C411.437 599.445 454.752 593.405 498.064 587.32C535.042 582.076 571.977 576.509 608.942 571.242C626.965 568.672 645.038 566.482 663.12 564.108C660.84 547.695 650.248 537.979 635.756 537.611Z" fill="#A9905A"/>
<path fill-rule="evenodd" clip-rule="evenodd" d="M365.665 505.94C407.463 507.957 447.427 498.01 486.943 486.346C523.058 475.708 558.481 462.569 596.714 460.368C588.252 439.334 582.672 435.358 561.834 435.819C537.029 436.372 514.147 444.878 491.577 453.902C454.021 468.885 415.82 479.835 374.772 476.953C367.337 476.423 356.778 473.668 353.135 477.357C348.271 482.289 348.755 492.489 346.703 501.456C351.879 503.208 355.337 504.591 358.911 505.502C361.143 505.864 363.405 506.01 365.665 505.94Z" fill="#A9905A"/>
<path d="M364.24 637.79C361.864 639.883 359.197 641.619 356.32 642.942V648.151C358.293 647.395 360.195 646.465 362.003 645.373C363.846 644.334 365.565 643.085 367.122 641.651V676.043H372.528V631.912H369.069C367.843 634.157 366.205 636.151 364.24 637.79Z" fill="black"/>
<path d="M491.546 655.92C490.041 653.99 487.894 652.664 485.494 652.186C487.319 651.414 488.889 650.144 490.024 648.521C491.035 646.989 491.564 645.191 491.546 643.358C491.547 641.359 490.993 639.4 489.943 637.699C488.833 635.894 487.235 634.439 485.333 633.503C483.282 632.468 481.013 631.939 478.716 631.959C475.539 631.851 472.434 632.912 469.99 634.944C467.537 637.135 465.941 640.125 465.483 643.381L470.89 644.36C471.086 642.119 472.037 640.009 473.587 638.379C475.003 637.039 476.894 636.322 478.843 636.385C480.762 636.303 482.634 637.001 484.031 638.321C485.363 639.601 486.095 641.383 486.048 643.231C486.192 645.436 485.135 647.547 483.281 648.751C481.431 649.956 479.265 650.585 477.057 650.561C476.763 650.555 476.47 650.532 476.18 650.492L475.581 655.217C476.823 654.863 478.106 654.662 479.397 654.618C481.698 654.542 483.933 655.412 485.575 657.027C487.2 658.651 488.08 660.874 488.007 663.17C488.069 665.613 487.128 667.975 485.402 669.705C483.708 671.439 481.371 672.396 478.947 672.344C476.932 672.395 474.975 671.669 473.483 670.316C471.996 668.967 470.959 666.754 470.337 663.688L464.93 664.426C465.173 667.861 466.74 671.066 469.298 673.37C471.942 675.704 475.375 676.94 478.901 676.827C482.831 676.96 486.655 675.525 489.528 672.84C492.249 670.325 493.771 666.77 493.713 663.066C493.813 660.509 493.05 657.991 491.546 655.92Z" fill="black"/>
<path d="M411.438 634.229C409.115 632.703 406.39 631.902 403.611 631.925C399.894 631.827 396.311 633.305 393.744 635.994C391.043 638.91 389.628 642.788 389.813 646.758C389.648 650.577 390.999 654.303 393.572 657.13C395.94 659.705 399.294 661.149 402.793 661.096C404.918 661.112 407.01 660.554 408.845 659.482C410.647 658.485 412.166 657.045 413.259 655.299C413.259 655.783 413.259 656.152 413.259 656.451C413.262 658.674 412.992 660.888 412.452 663.044C412.055 664.823 411.39 666.534 410.481 668.115C409.722 669.367 408.67 670.414 407.416 671.169C406.094 671.952 404.582 672.352 403.046 672.322C401.308 672.391 399.609 671.802 398.285 670.674C396.871 669.246 395.982 667.38 395.761 665.383L390.609 665.822C390.964 672.209 396.431 677.099 402.818 676.744C402.86 676.742 402.901 676.738 402.943 676.735C405.966 676.803 408.931 675.889 411.392 674.13C413.938 672.213 415.836 669.564 416.833 666.536C418.198 662.204 418.813 657.671 418.654 653.132C418.654 647.753 418.043 643.634 416.821 640.776C415.725 638.103 413.849 635.822 411.438 634.229ZM410.285 653.719C408.72 655.45 406.474 656.408 404.141 656.336C401.779 656.393 399.501 655.441 397.882 653.719C396.18 651.874 395.28 649.428 395.381 646.919C395.257 644.141 396.206 641.422 398.032 639.325C399.574 637.46 401.872 636.385 404.291 636.396C406.577 636.378 408.75 637.375 410.228 639.117C411.949 641.169 412.827 643.796 412.683 646.469C412.829 649.11 411.954 651.705 410.239 653.719H410.285Z" fill="black"/>
<path d="M442.82 646.884C439.837 646.914 436.941 647.887 434.544 649.662L436.85 637.802H454.336V632.65H432.55L428.308 655.24L433.403 655.966C435.135 653.254 438.15 651.632 441.368 651.679C443.906 651.567 446.372 652.535 448.158 654.341C449.943 656.334 450.862 658.954 450.717 661.625C450.852 664.469 449.895 667.256 448.042 669.417C446.377 671.322 443.956 672.397 441.426 672.356C439.379 672.406 437.392 671.663 435.881 670.281C434.222 668.61 433.196 666.413 432.977 664.069L427.328 664.507C427.55 667.926 429.102 671.125 431.651 673.416C434.372 675.722 437.862 676.918 441.426 676.77C445.904 676.953 450.196 674.966 452.953 671.434C455.274 668.508 456.499 664.863 456.412 661.13C456.549 657.317 455.12 653.615 452.458 650.884C449.939 648.272 446.448 646.823 442.82 646.884Z" fill="black"/>
<path d="M320.904 423.371C327.578 432.234 336.801 439.173 344.87 446.976L348.213 443.921L402.333 187.227L399.946 186.57C359.509 253.071 319.083 319.573 278.289 386.651C297.113 394.5 309.447 408.169 320.904 423.371Z" fill="#6C2020"/>
<path d="M299.822 547.571C306.047 553.333 313.897 557.436 322.161 563.084C324.744 553.863 326.646 547.467 328.259 541.047C330.345 532.772 328.801 526.998 319.038 524.75C313.604 523.339 308.602 520.608 304.479 516.798C288.94 502.679 274.128 487.754 258.578 473.646C251.662 467.388 243.684 462.34 235.834 456.473L223.523 477.738C234.509 486.682 244.792 494.139 253.99 502.748C269.54 517.362 284.169 533.014 299.822 547.571Z" fill="#6C2020"/>
<path d="M312.921 611.144C314.592 603.076 316.298 597.117 316.851 591.02C317.059 588.715 315.145 584.705 313.232 583.955C286.466 573.525 268.991 551.534 248.68 532.978C236.426 521.741 223.815 510.838 209.983 498.598C204.497 508.176 200.519 515.137 196.07 522.894L312.921 611.144Z" fill="#6C2020"/>
<path d="M335.338 503.208C337.482 493.273 339.534 483.719 340.721 478.209C326.094 464.875 313.471 454.11 301.725 442.481C289.978 430.851 280.227 417.493 263.143 411.662C258.739 418.957 254.394 426.172 249.414 434.447C284.088 451.874 299.374 489.32 335.338 503.208Z" fill="#6C2020"/>
<path d="M135.688 425.41C135.651 585.18 265.16 714.729 424.953 714.766C584.743 714.802 714.312 585.313 714.352 425.543C714.392 265.774 584.883 136.224 425.087 136.189C348.324 136.17 274.701 166.653 220.424 220.926C166.102 275.107 135.61 348.694 135.688 425.41ZM425.02 144.697C580.072 144.708 705.751 270.392 705.741 425.42C705.731 580.447 580.032 706.113 424.977 706.101C269.927 706.09 144.244 580.406 144.255 425.378C144.261 350.941 173.836 279.556 226.476 226.919C279.074 174.19 350.525 144.599 425.008 144.697H425.02Z" fill="#6C2020"/>
<path d="M712.371 138.082C553.66 -20.6057 296.34 -20.6083 137.629 138.076C-21.0828 296.761 -21.0848 554.042 137.624 712.729C296.332 871.417 553.652 871.42 712.361 712.735C788.573 636.532 831.399 533.179 831.399 425.411C831.539 317.615 788.703 214.206 712.371 138.082ZM704.5 704.857C550.135 859.178 299.88 859.165 145.536 704.827C-8.80698 550.49 -8.795 300.274 145.566 145.953C299.926 -8.3685 550.181 -8.35532 704.53 145.982C778.641 220.094 820.277 320.607 820.277 425.411C820.417 530.254 778.741 630.826 704.5 704.857Z" fill="#6C2020"/>
<path d="M725.307 125.161C559.465 -40.6811 290.563 -40.7024 124.695 125.114C-41.1721 290.929 -41.1921 559.791 124.648 725.633C290.488 891.476 559.391 891.497 725.257 725.682C804.909 646.049 849.676 538.037 849.676 425.41C849.826 312.769 805.059 204.713 725.307 125.161ZM720.466 720.819C557.292 883.981 292.724 883.993 129.538 720.844C-33.6489 557.696 -33.661 293.169 129.513 130.005C292.685 -33.1566 557.252 -33.1678 720.436 129.981C798.798 208.331 842.835 314.601 842.835 425.41C842.975 536.237 798.938 642.55 720.466 720.819Z" fill="#6C2020"/>
<path d="M338.544 75.0849C343.04 83.8327 347.766 92.4999 352.204 101.271C352.922 102.696 353.113 104.328 352.745 105.881C351.074 111.263 354.187 111.644 358.163 111.736C361.046 111.799 363.908 112.224 366.682 113.004C372.515 114.721 378.14 116.842 384.422 114.387C387.362 113.234 390.855 113.534 393.933 112.623C399.592 110.952 406.612 110.964 408.687 103.68C410.762 96.3955 412.445 88.95 414.117 82.2422C412.468 84.0748 409.379 86.6104 407.431 89.849C399.361 103.299 381.299 110.076 366.348 104.913C361.495 103.23 357.852 92.4077 360.861 88.3968C361.367 87.7685 362.11 87.3766 362.913 87.3134C367.674 87.4171 367.674 82.9107 369.656 80.3981C370.439 79.2448 371.074 77.9981 371.546 76.6869C370.244 75.1195 367.87 73.552 367.639 71.7195C367.236 68.55 374.141 63.5018 378.013 63.8822C383.927 64.4585 382.371 69.6449 384.007 73.552L374.164 76.4219C377.621 77.148 379.523 78.1968 380.999 77.7358C384.457 76.6639 390.324 75.1541 390.52 73.3215C390.971 68.6866 389.779 64.0407 387.155 60.194C384.561 56.8056 379.673 54.3276 374.475 57.013L363.489 62.7757L360.215 51.5039C354.118 52.495 353.738 52.472 353.461 57.5317C353.333 59.8367 354.706 62.4876 355.985 64.6313C360.32 71.973 355.732 78.4619 354.395 85.3195C354.187 86.3914 353.241 87.3134 351.893 89.5839C348.988 82.127 346.672 76.1452 344.25 69.9907L349.242 68.5385C347.363 66.3025 345.875 63.7323 343.674 62.1418C341.957 60.8856 338.982 59.8367 337.265 60.5513C335.859 61.1161 334.556 64.4585 334.867 66.314C335.386 69.2991 337.069 72.2496 338.544 75.0849Z" fill="#6C2020"/>
<path d="M319.121 107.978C329.092 119.687 325.691 122.165 313.265 132.919C315.905 133.921 318.083 134.751 320.584 135.685L340.745 109.534L339.109 107.978C337.634 108.876 336.158 109.764 334.694 110.698C333.23 111.631 331.708 112.657 330.245 113.614C323.87 105.338 323.905 104.393 329.749 97.0395C331.962 94.2273 333.898 91.1846 336.055 88.1073L330.026 84.5805L320.942 92.6483L313.449 71.0957C309.6 71.5221 308.25 73.4008 309.669 77.2849C310.579 79.7859 310.983 82.4598 311.974 84.9262C315.339 93.5703 317.265 101.788 306.694 107.09C306.418 107.24 306.337 107.805 306.164 108.243C310.533 116.506 314.867 107.24 319.121 107.978Z" fill="#6C2020"/>
<path d="M535.103 67.3038C529.674 75.0144 518.412 75.4869 514.642 85.6408C520.095 84.2232 524.256 82.9554 528.475 82.1832C529.8 81.9296 532.014 82.4944 532.613 83.451C533.213 84.4076 532.717 86.4937 532.083 87.7846C529.777 92.3947 526.112 93.5473 519.622 91.5879C514.769 90.1242 510.4 90.6198 506.608 94.0544C502.654 97.6734 498.793 101.419 495.081 105.303C490.469 110.132 490.573 110.213 495.887 114.523C496.403 114.925 496.801 115.459 497.04 116.067C499.346 122.764 498.032 126.901 492.073 131.892C491.865 132.065 491.842 132.468 491.727 132.825L494.666 136.525L501.709 129.356C502.861 131.661 503.726 133.413 504.59 135.2C506.02 138.162 507.161 141.343 509.028 144.005C510.297 145.101 512.052 145.444 513.64 144.904C514.608 144.316 515.172 141.723 514.792 140.386C513.87 137.39 511.876 134.739 510.976 131.742C510.4 129.84 510.262 127.132 511.231 125.576C516.532 116.897 521.144 107.977 522.043 97.6042C522.135 96.5208 522.988 95.5181 523.691 94.0774C529.351 97.8463 532.302 94.55 535.218 90.4124C537.371 87.7212 539.682 85.1581 542.135 82.7364C540.705 76.7201 534.066 80.0625 529.455 76.1669C532.763 74.196 535.403 72.0062 538.446 70.9805C541.731 69.8279 545.363 69.8279 549.108 69.3323C545.939 63.2469 533.443 60.4001 525.686 63.8923L535.103 67.3038ZM508.902 123.086L501.455 112.99C499.703 105.994 501.789 102.617 507.53 102.894L504.29 109.36C508.717 110.362 513.594 104.934 512.81 100.359C511.796 94.5154 513.72 93.1439 519.934 95.3452C520.637 106.121 514.089 113.935 508.902 123.086Z" fill="#6C2020"/>
<path d="M492.023 68.318C491.555 69.4309 490.874 70.4412 490.018 71.2915C487.366 73.8848 486.744 76.697 488.519 80.1661C492.554 78.0109 494.628 72.2481 500.449 74.0576C500.449 76.2475 500.449 78.299 500.449 80.9729C506.951 78.08 506.709 73.5736 505.821 68.8712L497.268 69.0325C497.326 66.0244 498.237 63.1546 497.268 61.299C494.49 56.0549 497.706 55.6285 501.348 55.3634C509.417 54.7986 517.625 54.6027 525.706 53.7037C528.115 53.4271 532.968 55.663 532.726 51.1566C532.507 47.0305 527.769 49.2088 525.337 49.1627C513.083 48.9668 500.576 47.6874 489.072 53.5539C487.043 54.5912 485.545 56.6542 483.805 58.2447C492.323 58.3024 494.87 61.4258 492.023 68.318Z" fill="#6C2020"/>
<path d="M627.668 169.581C631.559 167.702 635.82 166.204 639.19 163.576C645.351 158.701 651.302 160.637 656.383 164.176C660.023 166.723 662.524 166.008 666.954 164.337L656.573 155.578C661.333 153.134 665.334 151.233 669.155 149.008C670.385 148.294 671.125 146.703 672.095 145.551C670.575 145.239 668.795 144.271 667.554 144.732C662.644 146.461 657.873 148.53 653.252 150.921C649.512 152.938 646.441 153.307 642.651 150.841C637.93 147.957 633.029 145.386 627.969 143.142C626.908 142.635 625.348 143.142 622.468 143.303L639.39 155.912C630.169 165.709 620.947 160.937 611.836 157.549C610.966 167.633 619.307 173.592 627.668 169.581Z" fill="#6C2020"/>
<path d="M649.095 206.3C655.496 192.712 644.594 182.984 642.084 171.482C641.264 173.513 640.984 175.721 641.284 177.89C642.434 186.811 644.984 195.754 640.273 204.779L649.095 206.3Z" fill="#6C2020"/>
<path d="M89.3843 315.008C94.3871 318.65 99.5399 322.096 104.496 325.796C107.897 328.343 112.104 330.279 113.971 335.984C108.334 334.244 104.151 332.412 99.7819 331.801C97.0385 331.42 92.3468 332.02 91.5047 333.679C89.8684 336.907 92.9339 339.304 96.2314 340.433C96.9155 340.542 97.5916 340.708 98.2487 340.929C104.151 344.156 110.502 346.818 115.792 350.852C122.029 355.612 124.127 356.35 132.115 351.786C128.23 344.11 124.358 336.399 120.369 328.735C119.803 328.062 119.021 327.605 118.156 327.444C113.165 326.084 108.116 324.897 103.17 323.468C95.6893 321.324 90.2485 307.932 93.9491 300.774C99.0898 303.079 104.047 307.54 110.779 302.687L106.779 294.17L116.542 293.467C114.156 285.019 107.436 280.063 100.853 279.302C100.896 280.692 100.791 282.083 100.542 283.451C99.8609 285.807 99.0288 288.117 98.0526 290.367C97.3605 291.795 96.5914 293.184 95.7473 294.527C94.2831 293.49 91.8507 292.695 91.5167 291.369C89.3494 282.737 91.1826 274.496 94.133 266.175C108.277 273.009 121.717 279.348 134.997 285.999C144.334 290.609 145.372 293.605 142.247 303.552C141.775 305.039 140.565 306.295 140.15 307.782C139.713 309.765 139.405 311.775 139.228 313.798L140.772 314.812C142.95 313.418 145.752 312.507 147.193 310.513C150.663 306.135 153.582 301.346 155.884 296.256C159.008 288.673 156.944 286.31 149.867 283.198C134.686 276.502 119.436 269.782 104.981 261.691C97.4646 257.485 97.1535 257.15 103.17 249.486C106.052 245.821 109.406 242.455 111.828 238.525C112.727 237.073 112.035 234.146 111.159 232.336C110.744 231.483 108.196 231.541 106.548 231.403C100.784 230.919 99.2168 236.013 96.3234 239.217C85.5688 251.053 81.3961 265.725 81.6262 281.02C81.7872 291.565 85.3147 302.054 87.447 312.553C87.8001 313.565 88.4822 314.43 89.3843 315.008Z" fill="#6C2020"/>
<path d="M71.2987 305.962C69.7695 303.924 67.8922 302.173 65.7539 300.787C62.2963 298.724 59.2419 301.04 58.1697 303.783C57.0976 306.526 58.8728 309.189 62.4234 310.053C67.1031 311.206 71.6448 312.716 76.8435 314.248C74.8842 311.275 73.293 308.451 71.2987 305.962Z" fill="#6C2020"/>
<path d="M791.806 285.7C789.995 284.836 788.575 284.017 787.195 284.029C779.324 284.132 771.133 286.622 763.972 280.905C764.732 281.874 766.032 282.45 766.522 283.429C767.412 285.204 768.832 287.74 768.172 289.008C767.022 291.313 764.602 291.382 762.311 289.33C760.971 288.353 759.501 287.576 757.951 287.025C755.34 289.065 753.2 290.322 751.62 292.074C749.019 294.955 747.449 293.814 744.709 291.855C735.887 285.527 731.487 276.191 726.806 267.052C726.026 265.553 726.986 263.179 727.256 259.871C726.126 259.431 724.906 259.311 723.716 259.526C720.015 260.736 718.305 263.652 718.305 267.755C721.565 268.804 725.476 268.85 725.886 273.621C726.536 281.217 731.647 285.93 736.958 290.702C742.488 295.669 747.599 301.156 752.66 306.63C753.71 307.922 754.06 309.637 753.63 311.24C753.13 312.289 750.87 312.508 748.689 313.373C750.64 316.335 752.61 319.354 754.77 322.651C755.59 321.83 756.44 321.06 757.351 320.345C763.411 316.358 763.652 315.839 759.851 309.869C757.251 305.8 754.26 301.985 751.44 298.055L752.77 296.834C759.571 297.283 761.541 304.417 766.542 307.46C772.603 303.587 772.833 303.484 770.072 297.341C768.712 294.333 769.582 291.935 771.773 290.979C773.043 290.425 775.623 292.269 777.314 293.468C779.624 295.093 781.564 297.122 783.794 299.069C786.655 293.918 780.754 285.17 791.806 285.7ZM767.602 300.833L761.161 300.153L761.301 297.26L767.902 297.375C767.832 298.528 767.692 299.68 767.582 300.833H767.602Z" fill="#6C2020"/>
<path d="M719.73 318.893C721.33 323.815 722.66 328.459 724.43 332.92C724.95 334.257 726.741 335.086 727.891 336.147C728.581 334.349 729.991 332.505 729.851 330.764C729.281 323.181 728.211 315.632 727.481 308.059C727.381 307.172 727.951 305.616 728.551 305.42C729.411 305.143 730.571 305.916 731.631 306.1C733.672 306.469 735.732 306.734 737.782 307.045C737.172 305.051 737.042 302.677 735.862 301.133C731.821 295.875 727.521 290.824 722.98 286C721.99 284.962 719.52 285.343 717.689 285.066C718.109 286.449 718.129 288.166 718.989 289.169C722.21 292.88 725.7 296.349 729.371 300.222C728.121 301.006 727.131 301.271 726.821 301.882C724.18 307.045 721.89 304.579 719.64 301.617C717.389 298.655 715.029 295.439 712.719 292.269L709.038 295.773C711.168 299.232 713.479 302.579 715.949 305.8C719.16 309.592 717.769 311.99 714.219 314.11C710.238 316.484 706.248 317.695 702.157 314.214C697.886 310.583 695.236 304.29 696.646 300.764C693.186 301.673 691.125 305.21 692.035 308.663C692.125 309.006 692.245 309.339 692.386 309.661C697.096 320.23 701.797 326.788 719.73 318.893Z" fill="#6C2020"/>
<path d="M746.406 284.754C756.598 280.466 766.779 276.121 774.75 268.111C764.909 272.998 753.337 274.98 746.406 284.754Z" fill="#6C2020"/>
<path d="M745.924 272.284C747.444 269.541 748.964 266.809 750.424 264.146C745.274 265.806 740.443 268.019 738.062 274.427L747.214 273.275C746.824 272.963 746.394 272.619 745.924 272.284Z" fill="#6C2020"/>
<path d="M212.284 178.594C215.742 183.043 221.079 186.489 226.266 188.875C227.96 189.647 231.742 185.302 234.808 183.792C241.874 180.334 249.09 177.119 256.133 173.857C254.657 168.809 253.113 163.484 252.007 159.715C248.433 163.496 245.229 168.187 240.871 171.172C235.988 174.572 230.516 177.033 224.733 178.433C217.309 180.081 217.251 171.033 212.584 168.233C209.125 166.135 209.747 163.242 211.904 160.707C216.641 155.163 221.92 150.057 226.255 144.237C227.695 142.312 228.087 137.944 226.866 136.065C224.641 132.688 221.701 133.968 219.35 137.218C214.981 143.222 210.277 148.985 204.653 156.223C200.1 145.378 196.042 135.696 191.454 124.793C191.016 126.868 190.07 128.723 190.301 130.372C193.275 148.397 201.218 164.337 212.284 178.594Z" fill="#6C2020"/>
<path d="M194.524 221.688C193.67 222.437 192.691 223.025 190.662 224.5C198.397 224.027 208.253 216.225 208.76 210.669C208.875 209.402 207.711 207.627 206.615 206.693C195.377 197.023 188.357 184.403 182.248 171.287C179.55 165.524 178.27 159.047 176.15 152.258C175.504 153.503 174.997 154.056 174.997 154.633C174.156 173.869 183.757 189.128 195.147 202.982C203.227 212.859 204.149 213.263 194.524 221.688Z" fill="#6C2020"/>
<path d="M184.859 209.955C184.686 208.41 181.805 206.589 179.867 206.094C178.957 205.863 175.96 209.079 176.237 209.724C178.542 214.888 181.309 219.821 184.617 226.067C184.813 219.509 185.378 214.669 184.859 209.955Z" fill="#6C2020"/>
<path d="M228.275 685.402C232.193 687.93 233.123 690.37 231.064 692.721L212.977 718.699C211.494 721.45 208.882 721.427 205.139 718.63L203.664 720.751L223.468 734.581L224.943 732.449C221.009 729.929 220.076 727.485 222.142 725.119L240.229 699.141C241.719 696.398 244.335 696.424 248.078 699.221L249.554 697.101L229.75 683.27L228.275 685.402Z" fill="#6C2020"/>
<path d="M307.476 729.198C311.979 730.451 313.597 732.506 312.328 735.364L302.807 765.549C302.193 768.623 299.687 769.391 295.292 767.854L294.508 770.332L334.599 783.01L340.363 766.598L337.642 765.734C332.517 773.909 325.803 776.779 317.504 774.343C313.828 773.364 312.501 771.496 313.562 768.753L318.173 754.151C323.775 755.372 326.242 758.876 325.723 764.696L328.202 765.469L333.747 747.904L331.268 747.12C328.394 752.206 324.313 753.64 319.025 751.419L322.876 738.949C323.483 735.875 325.631 735.107 329.32 736.644C336.919 739.041 340.539 744.803 340.179 753.932L342.91 754.785L347.326 739.041L308.225 726.697L307.476 729.198Z" fill="#6C2020"/>
<path d="M377.859 743.306C363.796 742.453 354.86 748.985 351.047 762.899C350.171 777.137 356.642 785.973 370.459 789.408C384.476 790.437 393.314 784.057 396.972 770.264C397.648 756.019 391.277 747.032 377.859 743.306ZM384.626 768.305C382.421 781.959 377.833 788.144 370.862 786.861C363.693 785.708 361.188 778.382 363.347 764.882C365.506 751.382 370.179 745.216 377.364 746.383C384.395 747.329 386.816 754.636 384.626 768.305Z" fill="#6C2020"/>
<path d="M165.095 653.305C170.259 658.022 174.994 658.638 179.297 655.149C184.852 650.185 184.319 643.489 177.694 635.06L162.813 616.723L160.796 618.36C163.761 621.748 163.927 624.287 161.291 625.978L136.704 645.917C134.514 648.153 132.092 647.462 129.361 643.877L127.344 645.502L143.701 665.649C150.617 673.87 157.533 675.511 164.449 670.57C169.253 666.628 169.467 660.874 165.095 653.305ZM167.585 634.565C169.89 632.709 171.953 632.917 173.81 635.21C176.714 639.071 176.023 642.874 171.688 646.609C167.355 650.343 163.285 649.421 159.009 644.188L157.694 642.575L167.585 634.565ZM156.404 662.352C151.977 665.948 147.62 665.249 143.332 660.255C141.13 657.8 141.43 655.564 144.219 653.512L155.505 644.361L158.444 647.992C162.478 652.956 161.798 657.742 156.404 662.352Z" fill="#6C2020"/>
<path d="M91.5156 571.359L120.841 559.453C123.592 557.917 125.771 559.365 127.376 563.798L129.774 562.819L120.979 541.185L118.582 542.154C120.241 545.784 119.584 548.101 116.644 549.069L104.379 554.048L98.8116 540.344L111.077 535.365C113.89 534.028 115.968 535.238 117.313 538.996L119.723 538.016L111.019 516.625L108.622 517.593C110.466 521.696 109.881 524.174 106.87 525.027L77.5444 536.933C74.786 538.431 72.6417 537.063 71.1125 532.83L68.7031 533.809L77.4064 555.2L79.8038 554.232C78.1435 550.598 78.7897 548.293 81.7401 547.317L96.1723 541.462L101.74 555.166L87.3079 561.021C84.4955 562.358 82.4172 561.148 81.072 557.39L78.6626 558.37L87.458 580.015L89.8673 579.035C87.953 574.771 88.5031 572.212 91.5156 571.359Z" fill="#6C2020"/>
<path d="M105.011 605.877C102.889 602.711 103.128 600.44 105.726 599.065L118.821 591.124C122.232 595.734 121.809 600.037 117.552 604.033L118.901 606.257L134.647 596.691L133.299 594.467C127.788 596.403 123.777 594.793 121.264 589.637L132.353 582.907C134.843 581.008 136.967 581.843 138.728 585.408C142.869 592.223 141.79 598.95 135.488 605.589L136.975 608.032L150.681 599.1L129.414 564.051L127.189 565.399C129.763 569.31 129.629 571.923 126.786 573.237L99.7198 589.661C97.2444 591.574 94.8631 590.49 92.5727 586.41L90.3594 587.747L112.181 623.684L127.258 615.097L125.76 612.619C116.538 615.393 109.621 613.146 105.011 605.877Z" fill="#6C2020"/>
<path d="M203.135 699.533C195.035 704.75 187.735 704.497 181.233 698.772C178.329 696.313 177.945 694.066 180.081 692.029L190.455 680.769C195.005 684.258 195.772 688.506 192.761 693.516L194.674 695.28L207.17 681.737L205.302 679.974C200.545 683.362 196.242 682.928 192.392 678.671L201.187 669.128C203.046 666.608 205.322 666.82 208.011 669.762C213.867 675.141 214.689 681.902 210.478 690.047L212.588 691.983L223.261 679.64L193.107 651.863L191.355 653.765C194.905 656.839 195.496 659.386 193.13 661.406L171.678 684.688C169.818 687.208 167.228 686.823 163.909 683.535L162.156 685.402L193.072 713.882L205.233 701.457L203.135 699.533Z" fill="#6C2020"/>
<path d="M723.294 626.944L697.23 608.988C694.48 607.497 694.48 604.881 697.23 601.139L695.21 599.664L681.508 619.533L683.648 620.997C686.159 617.07 688.589 616.13 690.949 618.173L717.023 636.142C719.774 637.617 719.774 640.23 717.023 643.979L719.163 645.443L732.856 625.584L730.725 624.109C728.135 628.089 725.664 629.034 723.294 626.944Z" fill="#6C2020"/>
<path d="M680.846 646.595C674.376 650.291 670.005 651.087 667.715 648.981C664.784 646.03 664.954 642.657 668.215 638.862C672.575 634.39 678.816 634.255 686.937 638.458L688.688 636.557L677.046 625.826L675.296 627.774C675.326 628.088 675.396 628.395 675.516 628.685C675.946 630.01 675.906 630.99 675.446 631.439C674.856 631.892 674.185 632.232 673.465 632.442C670.305 633.367 667.464 635.137 665.234 637.559C658.923 645.151 659.093 652.366 665.744 659.204C669.805 662.953 676.456 662.377 685.697 657.475C692.408 653.772 696.829 652.915 698.989 654.905C702.44 658.317 702.36 662.116 698.719 666.304C693.898 671.275 686.867 671.375 677.616 666.603L675.676 668.713L688.658 680.664L690.418 678.763C690.418 678.763 690.418 678.636 690.418 678.394C689.858 676.7 689.878 675.536 690.418 674.936C691.108 674.35 691.888 673.886 692.728 673.565C696.079 671.921 699.099 669.678 701.64 666.949C707.93 658.858 708.01 651.632 701.87 645.27C697.189 640.882 690.178 641.325 680.846 646.595Z" fill="#6C2020"/>
<path d="M745.02 590.893L713.825 573.824C716.986 568.061 722.847 566.344 731.438 568.672L732.938 565.94L718.686 558.449L698.133 596.01L712.135 603.951L713.615 601.22C707.034 595.249 705.314 589.379 708.464 583.609L739.659 600.678C742.63 601.715 742.71 604.623 739.909 609.403L742.22 610.647L754.691 587.885L752.381 586.64C750.041 591.258 747.59 592.676 745.02 590.893Z" fill="#6C2020"/>
<path d="M764.699 546.162L753.528 541.956L738.695 526.108C736.395 524.322 735.815 521.498 736.895 517.649L734.465 516.738L728.514 532.528L730.934 533.438C732.284 529.88 733.845 528.436 735.635 529.105C736.785 529.666 737.805 530.45 738.665 531.41L748.127 541.633L733.245 543.466C732.975 543.402 732.695 543.402 732.424 543.466C731.424 543.651 730.394 543.651 729.394 543.466C728.094 542.981 728.054 541.103 729.264 537.876L726.844 536.954L719.062 557.596L721.503 558.506C722.143 555.794 725.303 554.299 730.964 554.023L749.517 551.879L760.919 556.178C764.019 556.789 764.509 559.636 762.409 564.776L764.829 565.687L773.801 541.898L771.38 540.976C769.73 545.825 767.5 547.554 764.699 546.162Z" fill="#6C2020"/>
<path d="M672.748 682.359C674.928 685.044 675.448 686.796 674.308 687.58C674.098 688.917 671.528 687.995 666.547 684.79C661.356 681.31 656.255 681.463 651.265 685.252L651.095 685.056C658.836 677.872 660.406 671.586 655.795 666.2C650.345 660.391 643.434 661.121 635.042 668.39L617.68 683.995L619.4 685.92C622.77 682.678 625.361 682.328 627.181 684.871L648.374 708.452C650.675 710.535 650.054 713.074 646.504 716.071L648.234 717.995L665.797 702.217L664.087 700.269C660.706 703.758 657.876 703.85 655.615 700.546L646.394 690.311C650.535 686.131 655.005 687.107 659.816 693.239C664.817 698.771 669.698 699.278 674.458 694.76C679.219 690.481 679.289 685.771 674.668 680.631L672.748 682.359ZM644.674 688.386L635.142 677.772C633.402 675.835 633.632 673.887 635.822 671.928C639.523 669.062 643.344 669.696 647.284 673.83C651.715 678.218 650.845 683.07 644.674 688.386Z" fill="#6C2020"/>
<path d="M578.781 708.764L578.511 708.188L564.924 714.677L566.077 716.982C569.349 715.415 571.52 715.737 572.56 717.916C572.83 715.68 573.7 723.509 575.16 741.405C575.36 743.421 575.52 744.966 575.66 746.015L575.43 746.13C561.523 731.478 554.956 724.355 555.725 724.762C554.572 723.194 556.013 721.558 559.99 719.84L558.838 717.535L538.93 727.044L540.083 729.349C542.584 727.781 544.982 728.369 547.253 731.112L575.04 760.387L579.971 758.082L576.17 717.04C575.7 714.539 576.77 712.43 579.261 710.781L578.181 709.133L578.781 708.764Z" fill="#6C2020"/>
<path d="M510.912 738.66L510.405 736.113L494.116 739.352L494.635 741.876C499.65 741.404 502.278 742.637 502.52 745.599L507.073 768.5H506.82L478.843 742.383L463.062 745.53L463.57 748.065C468.281 746.959 470.771 747.965 471.04 751.085L477.218 782.123C478.163 785.111 476.33 786.979 471.72 787.724L472.215 790.271L489.783 786.814L489.275 784.267C483.72 785.546 480.872 784.612 480.78 781.454L475.258 753.713H475.523L507.315 783.287L513.425 782.065L506.036 744.907C505.152 742.118 506.777 740.035 510.912 738.66Z" fill="#6C2020"/>
<path d="M542.354 765.736L531.635 735.954C530.259 733.142 531.796 731.025 536.245 729.603L535.369 727.172L512.672 735.332L513.548 737.763C517.883 736.035 520.41 736.692 521.133 739.734L531.854 769.516C533.237 772.328 531.692 774.449 527.243 775.867L528.119 778.298L550.816 770.138L549.962 767.695C545.621 769.439 543.084 768.786 542.354 765.736Z" fill="#6C2020"/>
<path d="M445.754 746.384L445.87 748.966C451.241 749.254 453.742 750.868 453.351 753.83L454.435 777.941C454.766 785.548 451.134 789.521 443.541 789.858C437.628 789.605 434.388 786.724 433.789 781.203L432.579 753.991C432.095 750.917 434.273 749.347 439.115 749.277L438.999 746.684L415.68 747.721L415.796 750.315C420.279 749.946 422.424 751.329 422.205 754.452L423.357 780.627C423.911 788.91 429.804 792.89 441.04 792.567C452.628 792.045 458.204 786.946 457.766 777.273L456.717 753.68C456.233 750.753 458.238 748.943 462.7 748.217L462.584 745.635L445.754 746.384Z" fill="#6C2020"/>
<path d="M626.818 710.851C629.949 719.964 627.959 726.986 620.847 731.919C617.767 734.155 615.487 734.002 614.007 731.458L605.555 718.699C610.026 715.103 614.347 715.357 618.507 719.46L620.668 718.019L610.506 702.691L608.336 704.12C610.476 709.545 609.026 713.617 603.975 716.337L596.804 705.514C594.814 703.117 595.574 700.962 599.114 699.049C605.745 694.654 612.506 695.468 619.397 701.492L621.788 699.924L612.276 686.555L578.781 708.764L579.621 710.528C579.471 710.62 579.381 710.735 579.231 710.827L579.571 711.346C583.422 708.626 586.032 708.657 587.423 711.438L604.905 737.832C606.905 740.237 605.915 742.661 601.925 745.104L603.355 747.259L638.41 724.059L629.249 709.272L626.818 710.851Z" fill="#6C2020"/>
<path d="M276.77 744.482L289.081 749.945C283.955 758.681 277.424 761.179 269.485 757.436C265.516 755.608 262.91 751.706 262.742 747.34C262.5 743.433 263.71 738.696 266.5 733.072C272.572 720.832 279.103 716.44 286.096 719.898C292.137 722.511 294.514 729 293.232 739.364L295.537 740.517L302.799 725.868L300.494 724.716L296.897 726.133C293.716 721.661 290.415 718.588 286.995 716.913C273.831 711.934 263.364 715.526 255.595 727.689C253.209 733.452 252.518 738.65 253.463 743.26C254.762 749.668 259.261 754.95 266.961 759.108C278.027 764.409 286.37 761.79 291.987 751.247L293.404 748.043L278.257 741.358L276.77 744.482Z" fill="#6C2020"/>
</svg>
