<?xml version="1.0" encoding="UTF-8"?>
<!DOCTYPE svg PUBLIC "-//W3C//DTD SVG 1.1//EN" "http://www.w3.org/Graphics/SVG/1.1/DTD/svg11.dtd">
<svg xmlns="http://www.w3.org/2000/svg" version="1.1" width="960px" height="832px" style="shape-rendering:geometricPrecision; text-rendering:geometricPrecision; image-rendering:optimizeQuality; fill-rule:evenodd; clip-rule:evenodd" xmlns:xlink="http://www.w3.org/1999/xlink">
<g><path style="opacity:1" fill="#fefefe" d="M -0.5,-0.5 C 319.5,-0.5 639.5,-0.5 959.5,-0.5C 959.5,276.833 959.5,554.167 959.5,831.5C 639.5,831.5 319.5,831.5 -0.5,831.5C -0.5,554.167 -0.5,276.833 -0.5,-0.5 Z"/></g>
<g><path style="opacity:1" fill="#077068" d="M 460.5,61.5 C 595.416,56.5531 703.249,107.553 784,214.5C 848.659,309.915 866.326,413.582 837,525.5C 804.079,632.084 737.246,709.251 636.5,757C 552.77,792.814 467.104,798.147 379.5,773C 261.168,732.668 181.335,653.502 140,535.5C 109.557,433.204 120.223,335.537 172,242.5C 238.265,135.167 334.432,74.8334 460.5,61.5 Z"/></g>
<g><path style="opacity:1" fill="#fcfdfc" d="M 462.5,80.5 C 590.294,75.9889 692.128,124.656 768,226.5C 835.861,328.909 848.528,437.909 806,553.5C 758.261,664.901 675.428,734.734 557.5,763C 447.874,783.512 350.207,758.512 264.5,688C 172.122,604.24 132.956,500.074 147,375.5C 164.643,271.616 217.143,190.783 304.5,133C 353.046,102.985 405.713,85.4847 462.5,80.5 Z"/></g>
<g><path style="opacity:1" fill="#107169" d="M 481.5,105.5 C 484.167,105.5 486.833,105.5 489.5,105.5C 492.294,115.47 494.96,125.47 497.5,135.5C 495.167,135.5 492.833,135.5 490.5,135.5C 490.843,131.866 489.177,130.199 485.5,130.5C 481.823,130.199 480.157,131.866 480.5,135.5C 478.167,135.5 475.833,135.5 473.5,135.5C 475.963,125.443 478.63,115.443 481.5,105.5 Z"/></g>
<g><path style="opacity:1" fill="#13726a" d="M 456.5,106.5 C 463.101,105.134 467.768,107.467 470.5,113.5C 469.451,115.112 467.951,116.112 466,116.5C 464.28,115.277 462.447,114.277 460.5,113.5C 458.575,113.59 457.408,114.59 457,116.5C 455.875,121.399 456.709,125.899 459.5,130C 463.711,130.817 465.711,128.984 465.5,124.5C 467.5,124.833 469.5,125.167 471.5,125.5C 471.927,132.996 468.427,136.996 461,137.5C 454.921,136.411 451.255,132.744 450,126.5C 447.916,118.253 450.083,111.587 456.5,106.5 Z"/></g>
<g><path style="opacity:1" fill="#12726a" d="M 501.5,105.5 C 506.177,105.835 510.844,106.335 515.5,107C 519.722,109.609 521.722,113.442 521.5,118.5C 522.305,135.028 514.972,140.362 499.5,134.5C 500.873,124.905 501.54,115.238 501.5,105.5 Z"/></g>
<g><path style="opacity:1" fill="#0f7169" d="M 527.5,108.5 C 533.447,109.019 539.281,110.019 545,111.5C 545.667,113.5 545.667,115.5 545,117.5C 541.281,116.352 537.448,115.686 533.5,115.5C 533.5,117.167 533.5,118.833 533.5,120.5C 536.786,121.207 540.119,121.54 543.5,121.5C 543.643,123.262 543.309,124.929 542.5,126.5C 538.88,127.293 535.213,127.293 531.5,126.5C 531.5,128.5 531.5,130.5 531.5,132.5C 534.839,132.89 538.173,133.39 541.5,134C 542.423,136.041 542.756,138.208 542.5,140.5C 536.176,139.751 529.843,139.085 523.5,138.5C 524.963,128.519 526.296,118.519 527.5,108.5 Z"/></g>
<g><path style="opacity:1" fill="#15726a" d="M 434.5,109.5 C 435.822,109.33 436.989,109.663 438,110.5C 441.894,119.289 446.061,127.955 450.5,136.5C 447.24,139.358 444.573,139.025 442.5,135.5C 436.861,133.014 433.861,134.681 433.5,140.5C 431.139,140.674 428.806,141.007 426.5,141.5C 427.573,131.175 428.573,120.842 429.5,110.5C 431.415,110.784 433.081,110.451 434.5,109.5 Z"/></g>
<g><path style="opacity:1" fill="#0f7169" d="M 559.5,113.5 C 560.388,116.054 560.721,118.721 560.5,121.5C 560.335,124.518 560.502,127.518 561,130.5C 563.173,125.479 565.84,120.812 569,116.5C 571.196,117.09 573.362,117.757 575.5,118.5C 574.172,128.166 572.005,137.832 569,147.5C 567.644,146.62 566.144,146.286 564.5,146.5C 565.745,140.114 566.912,133.781 568,127.5C 565.227,132.713 562.727,138.046 560.5,143.5C 557.486,145.08 555.486,144.247 554.5,141C 555.546,135.528 555.712,130.028 555,124.5C 553.471,130.619 551.638,136.619 549.5,142.5C 548.264,141.754 546.93,141.421 545.5,141.5C 547.347,132.11 549.514,122.777 552,113.5C 554.394,112.864 556.894,112.864 559.5,113.5 Z"/></g>
<g><path style="opacity:1" fill="#f0f4f3" d="M 507.5,113.5 C 512.826,112.826 515.159,115.159 514.5,120.5C 515.225,126.102 512.892,129.102 507.5,129.5C 507.5,124.167 507.5,118.833 507.5,113.5 Z"/></g>
<g><path style="opacity:1" fill="#15726a" d="M 405.5,115.5 C 407.821,117.09 408.821,119.423 408.5,122.5C 405.123,122.959 401.789,123.626 398.5,124.5C 398.5,126.167 398.5,127.833 398.5,129.5C 402.301,128.798 405.967,127.964 409.5,127C 410.76,128.814 410.76,130.647 409.5,132.5C 407.205,133.432 404.871,134.265 402.5,135C 401.069,137.538 401.736,139.372 404.5,140.5C 407.776,138.838 411.109,138.504 414.5,139.5C 416.1,142.802 415.1,144.969 411.5,146C 407.222,146.759 403.056,147.926 399,149.5C 398.5,149.167 398,148.833 397.5,148.5C 394.626,139.212 391.959,129.879 389.5,120.5C 395.107,119.344 400.44,117.677 405.5,115.5 Z"/></g>
<g><path style="opacity:1" fill="#a1bab6" d="M 559.5,113.5 C 560.748,114.334 561.415,115.667 561.5,117.5C 561.489,119.045 561.156,120.378 560.5,121.5C 560.721,118.721 560.388,116.054 559.5,113.5 Z"/></g>
<g><path style="opacity:1" fill="#d5e0de" d="M 484.5,114.5 C 485.649,114.791 486.316,115.624 486.5,117C 487.159,119.462 487.493,121.962 487.5,124.5C 486.167,124.5 484.833,124.5 483.5,124.5C 483.616,121.14 483.949,117.807 484.5,114.5 Z"/></g>
<g><path style="opacity:1" fill="#0d7068" d="M 581.5,120.5 C 583.827,120.665 585.993,121.331 588,122.5C 588.176,125.882 588.676,129.215 589.5,132.5C 592.172,130.328 594.672,127.994 597,125.5C 599.245,126.137 601.412,126.97 603.5,128C 599,132.5 594.5,137 590,141.5C 588.326,145.021 587.16,148.687 586.5,152.5C 584.139,152.326 581.806,151.993 579.5,151.5C 580.624,146.793 581.957,142.127 583.5,137.5C 582.586,131.856 581.919,126.189 581.5,120.5 Z"/></g>
<g><path style="opacity:1" fill="#e5ebea" d="M 434.5,118.5 C 436.785,121.335 438.118,124.668 438.5,128.5C 437.167,128.5 435.833,128.5 434.5,128.5C 434.5,125.167 434.5,121.833 434.5,118.5 Z"/></g>
<g><path style="opacity:1" fill="#18736b" d="M 375.5,124.5 C 380.446,124.14 384.112,126.14 386.5,130.5C 384.614,131.406 382.78,132.406 381,133.5C 379.534,131.675 377.701,131.175 375.5,132C 374.549,132.718 374.383,133.551 375,134.5C 378.745,135.297 382.579,135.797 386.5,136C 391.035,138.925 392.868,143.092 392,148.5C 388.952,154.306 384.119,156.472 377.5,155C 375.457,153.292 373.79,151.292 372.5,149C 374.249,147.708 376.082,146.542 378,145.5C 380.323,149.973 382.823,150.307 385.5,146.5C 385.392,145.558 385.059,144.725 384.5,144C 380.381,143.857 376.381,143.19 372.5,142C 368.87,138.95 367.703,135.117 369,130.5C 370.872,128.153 373.039,126.153 375.5,124.5 Z"/></g>
<g><path style="opacity:1" fill="#107169" d="M 358.5,132.5 C 361.109,132.83 362.776,134.33 363.5,137C 360.661,138.92 357.661,140.587 354.5,142C 353.397,143.68 353.73,145.18 355.5,146.5C 358.618,145.441 361.618,144.108 364.5,142.5C 365.752,144.001 366.752,145.668 367.5,147.5C 364.842,148.829 362.176,150.162 359.5,151.5C 358.769,153.401 358.769,155.401 359.5,157.5C 363.639,156.513 367.472,154.847 371,152.5C 372.814,154.715 373.314,157.048 372.5,159.5C 367.585,162.027 362.585,164.36 357.5,166.5C 352.639,158.112 348.306,149.446 344.5,140.5C 349.105,137.64 353.772,134.974 358.5,132.5 Z"/></g>
<g><path style="opacity:1" fill="#15726a" d="M 618.5,137.5 C 627.136,135.808 632.469,139.141 634.5,147.5C 633.65,155.035 630.317,161.201 624.5,166C 612.211,168.379 607.044,163.212 609,150.5C 610.735,144.994 613.901,140.661 618.5,137.5 Z"/></g>
<g><path style="opacity:1" fill="#15726a" d="M 337.5,142.5 C 343.168,150.862 348.502,159.529 353.5,168.5C 351.891,169.888 350.058,170.888 348,171.5C 342.589,168.719 337.422,165.886 332.5,163C 335.167,167.333 337.833,171.667 340.5,176C 338.751,177.292 336.918,178.458 335,179.5C 329.833,171 324.667,162.5 319.5,154C 321.336,152.581 323.336,151.414 325.5,150.5C 330.357,153.919 335.357,156.753 340.5,159C 337.833,154.667 335.167,150.333 332.5,146C 334.584,145.303 336.251,144.136 337.5,142.5 Z"/></g>
<g><path style="opacity:1" fill="#f3f6f6" d="M 620.5,144.5 C 624.198,143.68 626.531,145.013 627.5,148.5C 626.355,153.823 623.522,157.823 619,160.5C 616.232,159.725 615.066,157.892 615.5,155C 616.06,150.949 617.727,147.449 620.5,144.5 Z"/></g>
<g><path style="opacity:1" fill="#18736b" d="M 642.5,147.5 C 648.246,149.244 653.246,152.244 657.5,156.5C 656.561,158.053 655.394,159.387 654,160.5C 651.293,158.733 648.46,157.566 645.5,157C 643.993,157.837 643.493,159.004 644,160.5C 646.08,162.123 648.246,163.623 650.5,165C 649.687,166.803 648.52,168.303 647,169.5C 644.589,168.013 642.089,167.179 639.5,167C 637.709,169.414 636.043,171.914 634.5,174.5C 631.707,175.456 629.373,174.622 627.5,172C 632.888,164.056 637.888,155.889 642.5,147.5 Z"/></g>
<g><path style="opacity:1" fill="#16726a" d="M 313.5,157.5 C 319.886,164.903 325.553,172.903 330.5,181.5C 329.421,183.543 327.754,184.876 325.5,185.5C 319.671,177.494 314.004,169.328 308.5,161C 310.346,159.97 312.013,158.804 313.5,157.5 Z"/></g>
<g><path style="opacity:1" fill="#0e7169" d="M 468.5,164.5 C 483.699,162.393 496.033,167.227 505.5,179C 489.842,182.5 477.508,177.666 468.5,164.5 Z"/></g>
<g><path style="opacity:1" fill="#0d7169" d="M 536.5,182.5 C 534.393,183.468 532.059,183.802 529.5,183.5C 517.181,182.329 508.181,176.162 502.5,165C 517.644,163.737 528.978,169.57 536.5,182.5 Z"/></g>
<g><path style="opacity:1" fill="#15726a" d="M 302.5,164.5 C 309.174,171.989 315.507,179.822 321.5,188C 319.983,189.685 318.316,191.185 316.5,192.5C 314.008,189.837 311.674,187.004 309.5,184C 307.721,184.044 306.055,184.711 304.5,186C 303.483,187.049 303.316,188.216 304,189.5C 305.961,191.928 307.794,194.428 309.5,197C 308.003,198.662 306.337,200.162 304.5,201.5C 298.308,193.809 292.308,185.976 286.5,178C 288.017,176.315 289.684,174.815 291.5,173.5C 293.843,176.207 296.177,178.874 298.5,181.5C 301.222,180.15 302.722,178.15 303,175.5C 301.285,173.241 299.452,171.074 297.5,169C 299.618,167.951 301.284,166.451 302.5,164.5 Z"/></g>
<g><path style="opacity:1" fill="#117169" d="M 438.5,167.5 C 452.108,165.647 463.774,169.481 473.5,179C 458.617,184.053 445.617,181.053 434.5,170C 435.858,169.066 437.192,168.232 438.5,167.5 Z"/></g>
<g><path style="opacity:1" fill="#0d7068" d="M 536.5,170.5 C 547.773,169.713 556.94,174.046 564,183.5C 565.753,186.005 567.253,188.671 568.5,191.5C 553.312,191.562 542.645,184.562 536.5,170.5 Z"/></g>
<g><path style="opacity:1" fill="#16726a" d="M 675.5,169.5 C 678.439,169.918 680.772,171.418 682.5,174C 678.642,183.551 674.642,193.051 670.5,202.5C 668.851,201.352 667.351,200.019 666,198.5C 666.319,196.257 666.152,194.09 665.5,192C 663.714,191.215 662.214,190.049 661,188.5C 657.748,192.593 654.914,192.259 652.5,187.5C 660.016,181.25 667.682,175.25 675.5,169.5 Z"/></g>
<g><path style="opacity:1" fill="#12716a" d="M 410.5,174.5 C 422.026,173.234 432.36,176.067 441.5,183C 427.289,190.056 413.955,188.723 401.5,179C 404.561,177.47 407.561,175.97 410.5,174.5 Z"/></g>
<g><path style="opacity:1" fill="#13726a" d="M 569.5,177.5 C 585.059,180.726 594.726,190.059 598.5,205.5C 582.938,202.271 573.271,192.938 569.5,177.5 Z"/></g>
<g><path style="opacity:1" fill="#eaefef" d="M 672.5,178.5 C 673.239,178.369 673.906,178.536 674.5,179C 673.192,181.795 671.526,184.295 669.5,186.5C 668.28,186.113 667.613,185.28 667.5,184C 669.351,182.317 671.017,180.484 672.5,178.5 Z"/></g>
<g><path style="opacity:1" fill="#749d97" d="M 536.5,182.5 C 537.043,182.56 537.376,182.893 537.5,183.5C 534.691,184.8 532.024,184.8 529.5,183.5C 532.059,183.802 534.393,183.468 536.5,182.5 Z"/></g>
<g><path style="opacity:1" fill="#13726a" d="M 276.5,185.5 C 279.187,185.336 281.854,185.503 284.5,186C 285.91,186.368 286.91,187.201 287.5,188.5C 286.752,190.332 285.752,191.999 284.5,193.5C 281.432,191.849 279.098,192.515 277.5,195.5C 278.978,202.159 282.978,205.659 289.5,206C 292.167,203.667 292.167,201.333 289.5,199C 292.728,195.876 295.561,196.042 298,199.5C 298.674,209.825 293.84,214.325 283.5,213C 277.817,209.463 273.65,204.63 271,198.5C 270.333,196.5 270.333,194.5 271,192.5C 272.666,190.004 274.5,187.671 276.5,185.5 Z"/></g>
<g><path style="opacity:1" fill="#097068" d="M 384.5,185.5 C 393.783,184.488 402.45,186.321 410.5,191C 397.339,199.209 384.006,199.542 370.5,192C 374.846,188.95 379.513,186.783 384.5,185.5 Z"/></g>
<g><path style="opacity:1" fill="#17736b" d="M 688.5,185.5 C 697.136,183.808 702.469,187.141 704.5,195.5C 703.864,202.625 701.197,203.459 696.5,198C 697.472,193.32 695.472,191.653 690.5,193C 686.545,195.119 683.878,198.285 682.5,202.5C 683.687,207.263 686.354,208.43 690.5,206C 686.706,203.201 687.039,200.701 691.5,198.5C 694.167,200.833 696.833,203.167 699.5,205.5C 696.559,210.133 692.559,213.133 687.5,214.5C 674.61,210.877 672.11,203.543 680,192.5C 682.628,189.79 685.461,187.456 688.5,185.5 Z"/></g>
<g><path style="opacity:1" fill="#117169" d="M 601.5,190.5 C 616.601,195.567 624.267,205.9 624.5,221.5C 610.27,215.949 602.604,205.616 601.5,190.5 Z"/></g>
<g><path style="opacity:1" fill="#117169" d="M 358.5,199.5 C 366.093,199.052 373.426,200.219 380.5,203C 368.415,213.097 355.081,215.097 340.5,209C 345.877,204.48 351.877,201.314 358.5,199.5 Z"/></g>
<g><path style="opacity:1" fill="#13726a" d="M 711.5,200.5 C 715.058,203.552 718.558,206.886 722,210.5C 724.256,219.911 720.59,223.911 711,222.5C 710.09,227.651 708.09,232.318 705,236.5C 702.889,234.898 701.389,232.898 700.5,230.5C 701.763,226.808 703.43,223.308 705.5,220C 704.874,219.25 704.374,218.416 704,217.5C 701.318,220.35 698.484,223.016 695.5,225.5C 693.5,224.167 691.833,222.5 690.5,220.5C 697.766,214.048 704.766,207.382 711.5,200.5 Z"/></g>
<g><path style="opacity:1" fill="#0e7169" d="M 630.5,207.5 C 644.751,214.332 651.584,225.665 651,241.5C 637.28,234.405 630.447,223.072 630.5,207.5 Z"/></g>
<g><path style="opacity:1" fill="#19736b" d="M 254.5,207.5 C 260.566,210.912 260.4,214.579 254,218.5C 253.732,220.59 254.732,221.924 257,222.5C 259,220.5 261,218.5 263,216.5C 264.351,218.019 265.851,219.352 267.5,220.5C 265.833,222.5 264.167,224.5 262.5,226.5C 265.006,229.505 267.673,232.339 270.5,235C 269.494,238.031 267.494,239.365 264.5,239C 257.657,232.989 250.99,226.822 244.5,220.5C 247.857,216.148 251.191,211.815 254.5,207.5 Z"/></g>
<g><path style="opacity:1" fill="#eff3f3" d="M 711.5,210.5 C 716.255,212.116 716.589,214.449 712.5,217.5C 711.019,216.52 709.685,215.353 708.5,214C 709.71,212.961 710.71,211.794 711.5,210.5 Z"/></g>
<g><path style="opacity:1" fill="#0a7068" d="M 334.5,217.5 C 340.577,217.196 346.577,217.696 352.5,219C 342.043,230.524 329.376,234.024 314.5,229.5C 319.973,223.33 326.64,219.33 334.5,217.5 Z"/></g>
<g><path style="opacity:1" fill="#18736b" d="M 728.5,220.5 C 731.787,221.273 733.287,223.273 733,226.5C 726.167,232 719.333,237.5 712.5,243C 711.5,243.667 710.5,243.667 709.5,243C 708.743,241.488 707.743,240.154 706.5,239C 714.024,232.969 721.357,226.802 728.5,220.5 Z"/></g>
<g><path style="opacity:1" fill="#127169" d="M 657.5,228.5 C 668.518,234.849 674.185,244.515 674.5,257.5C 674.167,259.833 673.833,262.167 673.5,264.5C 661.14,255.77 655.807,243.77 657.5,228.5 Z"/></g>
<g><path style="opacity:1" fill="#15726a" d="M 237.5,229.5 C 249.034,229.379 256.7,234.712 260.5,245.5C 258.998,254.755 253.665,258.255 244.5,256C 235.149,252.679 230.649,246.179 231,236.5C 232.694,233.642 234.861,231.309 237.5,229.5 Z"/></g>
<g><path style="opacity:1" fill="#127169" d="M 730.5,234.5 C 741.488,232.339 746.655,236.673 746,247.5C 745.252,249.332 744.252,250.999 743,252.5C 741.649,250.981 740.149,249.648 738.5,248.5C 740.882,242.38 738.882,240.213 732.5,242C 730.333,243.5 728.167,245 726,246.5C 723.23,253.064 725.23,255.064 732,252.5C 732.601,254.137 733.101,255.803 733.5,257.5C 733.182,258.647 732.516,259.481 731.5,260C 721.052,261.552 716.552,257.052 718,246.5C 721.403,241.595 725.57,237.595 730.5,234.5 Z"/></g>
<g><path style="opacity:1" fill="#f4f7f6" d="M 239.5,236.5 C 243.614,236.749 247.28,238.249 250.5,241C 252.282,243.243 252.782,245.743 252,248.5C 246.249,249.639 241.582,247.639 238,242.5C 237.252,240.16 237.752,238.16 239.5,236.5 Z"/></g>
<g><path style="opacity:1" fill="#12726a" d="M 312.5,237.5 C 326.693,235.065 329.026,238.231 319.5,247C 310.863,253.742 301.197,255.909 290.5,253.5C 296.085,245.713 303.419,240.379 312.5,237.5 Z"/></g>
<g><path style="opacity:1" fill="#066f67" d="M 483.5,245.5 C 491.753,248.25 500.086,250.75 508.5,253C 516.972,256.991 525.639,260.491 534.5,263.5C 540.34,266.166 545.506,269.833 550,274.5C 555.934,286.638 558.767,299.471 558.5,313C 557.545,323.851 557.378,334.684 558,345.5C 556.038,350.085 553.538,354.418 550.5,358.5C 548.034,359.123 545.701,359.957 543.5,361C 531.393,361.297 519.393,362.464 507.5,364.5C 481.155,363.899 454.822,362.399 428.5,360C 425.705,358.207 423.205,356.04 421,353.5C 419.503,340.917 418.336,328.25 417.5,315.5C 418.992,305.217 420.159,294.884 421,284.5C 423.575,274.259 430.075,268.093 440.5,266C 445.873,261.656 451.206,257.323 456.5,253C 465.761,250.916 474.761,248.416 483.5,245.5 Z"/></g>
<g><path style="opacity:1" fill="#046f67" d="M 589.5,252.5 C 604.533,252.168 619.533,252.668 634.5,254C 638.088,255.963 641.755,257.63 645.5,259C 647.378,260.543 648.878,262.376 650,264.5C 651.237,278.607 652.07,292.773 652.5,307C 652.06,312.838 651.56,318.672 651,324.5C 650.131,333.295 647.798,341.628 644,349.5C 640.032,352.902 635.532,355.402 630.5,357C 616.833,357.667 603.167,357.667 589.5,357C 584.626,356.983 581.126,354.816 579,350.5C 577.777,344.621 578.611,339.121 581.5,334C 592.793,334.575 604.126,334.575 615.5,334C 622.092,333.418 624.925,329.918 624,323.5C 618.828,318.654 612.661,315.82 605.5,315C 599.496,314.591 593.496,314.757 587.5,315.5C 578.605,316.771 574.939,312.937 576.5,304C 576.039,300.16 577.039,296.827 579.5,294C 586.83,291.949 594.33,290.782 602,290.5C 606.168,291.145 610.335,291.312 614.5,291C 620.454,288.574 621.12,285.074 616.5,280.5C 615.335,279.416 614.002,278.583 612.5,278C 601.466,277.837 590.466,277.67 579.5,277.5C 577.113,271.722 576.28,265.722 577,259.5C 578.5,258.667 579.667,257.5 580.5,256C 583.662,254.973 586.662,253.806 589.5,252.5 Z"/></g>
<g><path style="opacity:1" fill="#14726a" d="M 681.5,252.5 C 687.228,255.915 691.062,260.915 693,267.5C 696.27,275.182 696.27,282.849 693,290.5C 682.051,280.045 678.217,267.379 681.5,252.5 Z"/></g>
<g><path style="opacity:1" fill="#15726a" d="M 751.5,252.5 C 754.121,253.121 755.788,254.788 756.5,257.5C 751.168,261.501 745.502,265.001 739.5,268C 737.167,273.333 738.833,275.333 744.5,274C 749.703,270.634 755.036,267.468 760.5,264.5C 761.888,266.109 762.888,267.942 763.5,270C 757.008,275.829 749.508,279.662 741,281.5C 738.7,281.506 736.534,281.006 734.5,280C 730.3,275.086 729.8,269.919 733,264.5C 739.072,260.243 745.239,256.243 751.5,252.5 Z"/></g>
<g><path style="opacity:1" fill="#056f67" d="M 362.5,254.5 C 372.506,254.334 382.506,254.5 392.5,255C 405.103,261.421 405.769,268.754 394.5,277C 383.485,277.876 372.485,278.876 361.5,280C 355.457,281.697 353.29,285.531 355,291.5C 357.69,293.182 360.523,294.682 363.5,296C 377.614,298.8 391.614,301.633 405.5,304.5C 408.884,314.621 405.217,319.454 394.5,319C 379.956,319.304 365.956,322.137 352.5,327.5C 350.234,335.133 352.9,340.299 360.5,343C 373.504,342.444 386.504,341.777 399.5,341C 402.667,343.5 405.833,346 409,348.5C 409.799,353.087 409.632,357.587 408.5,362C 400.624,364.84 392.458,366.006 384,365.5C 367.313,365.509 350.813,364.009 334.5,361C 326.734,354.721 322.567,346.555 322,336.5C 321.096,313.45 321.763,290.45 324,267.5C 325.478,264.358 327.645,261.858 330.5,260C 341.396,258.622 352.062,256.789 362.5,254.5 Z"/></g>
<g><path style="opacity:1" fill="#117169" d="M 294.5,260.5 C 297.518,260.335 300.518,260.502 303.5,261C 296.418,275.038 285.084,281.538 269.5,280.5C 275.042,270.242 283.376,263.576 294.5,260.5 Z"/></g>
<g><path style="opacity:1" fill="#16726a" d="M 212.5,266.5 C 219.04,269.687 225.54,273.021 232,276.5C 234.237,273.702 236.237,270.702 238,267.5C 239.957,268.889 241.79,270.389 243.5,272C 241.35,276.157 239.184,280.323 237,284.5C 236.311,285.357 235.478,286.023 234.5,286.5C 225.882,281.863 217.549,276.863 209.5,271.5C 210.763,269.971 211.763,268.305 212.5,266.5 Z"/></g>
<g><path style="opacity:1" fill="#fafbfb" d="M 506.5,272.5 C 516.878,275.195 525.544,280.695 532.5,289C 533.448,289.483 534.448,289.649 535.5,289.5C 536.212,296.697 532.879,300.863 525.5,302C 517.975,304.646 510.975,303.646 504.5,299C 497.431,289.48 498.097,280.647 506.5,272.5 Z"/></g>
<g><path style="opacity:1" fill="#fbfcfc" d="M 459.5,274.5 C 474.579,272.08 480.746,278.413 478,293.5C 475.364,296.506 472.531,299.173 469.5,301.5C 462.458,302.84 455.458,302.674 448.5,301C 446.957,299.122 445.124,297.622 443,296.5C 441.148,289.91 442.648,284.41 447.5,280C 451.69,278.231 455.69,276.398 459.5,274.5 Z"/></g>
<g><path style="opacity:1" fill="#13726a" d="M 765.5,276.5 C 766.496,276.414 767.329,276.748 768,277.5C 768.788,279.165 769.122,280.831 769,282.5C 763.276,285.612 757.443,288.612 751.5,291.5C 751.167,292 750.833,292.5 750.5,293C 751.697,295.894 753.03,298.727 754.5,301.5C 752.417,302.959 750.25,304.292 748,305.5C 745.364,300.394 742.864,295.228 740.5,290C 748.835,285.499 757.169,280.999 765.5,276.5 Z"/></g>
<g><path style="opacity:1" fill="#0d7068" d="M 702.5,279.5 C 707.684,283.852 710.851,289.518 712,296.5C 713.087,304.13 712.087,311.463 709,318.5C 699.286,306.761 697.119,293.761 702.5,279.5 Z"/></g>
<g><path style="opacity:1" fill="#13726a" d="M 206.5,281.5 C 214.776,280.537 221.942,282.87 228,288.5C 232.191,295.884 230.691,301.717 223.5,306C 215.019,307.346 207.853,304.846 202,298.5C 198.931,291.46 200.431,285.793 206.5,281.5 Z"/></g>
<g><path style="opacity:1" fill="#15726a" d="M 276.5,286.5 C 278.924,286.192 281.257,286.526 283.5,287.5C 277.802,301.536 267.468,309.536 252.5,311.5C 256.43,299.237 264.43,290.903 276.5,286.5 Z"/></g>
<g><path style="opacity:1" fill="#f6f8f8" d="M 208.5,288.5 C 213.287,287.97 217.62,289.137 221.5,292C 224.759,296.553 223.593,299.053 218,299.5C 214,299.167 210.667,297.5 208,294.5C 207.322,292.402 207.489,290.402 208.5,288.5 Z"/></g>
<g><path style="opacity:1" fill="#13726a" d="M 774.5,293.5 C 778.05,299.439 781.05,305.772 783.5,312.5C 781.711,313.877 779.711,314.877 777.5,315.5C 775.99,313.678 774.657,311.678 773.5,309.5C 766.833,312.167 760.167,314.833 753.5,317.5C 752.218,315.821 751.218,313.987 750.5,312C 756.674,308.883 763.007,306.05 769.5,303.5C 770.528,301.56 770.528,299.56 769.5,297.5C 770.662,295.462 772.328,294.128 774.5,293.5 Z"/></g>
<g><path style="opacity:1" fill="#107169" d="M 196.5,306.5 C 205.327,305.577 212.827,308.244 219,314.5C 221.52,328.637 215.686,333.803 201.5,330C 187.626,324.371 185.96,316.537 196.5,306.5 Z"/></g>
<g><path style="opacity:1" fill="#107169" d="M 719.5,308.5 C 722.051,310.578 723.884,313.244 725,316.5C 727.985,327.792 726.652,338.459 721,348.5C 712.982,335.407 712.482,322.074 719.5,308.5 Z"/></g>
<g><path style="opacity:1" fill="#f3f6f5" d="M 198.5,313.5 C 202.747,313.178 206.747,314.011 210.5,316C 214.761,320.223 213.927,323.057 208,324.5C 202.68,324.101 198.847,321.601 196.5,317C 196.978,315.697 197.645,314.531 198.5,313.5 Z"/></g>
<g><path style="opacity:1" fill="#0f7169" d="M 262.5,314.5 C 263.833,314.5 265.167,314.5 266.5,314.5C 263.846,328.994 255.346,338.327 241,342.5C 240.5,342.333 240,342.167 239.5,342C 242.602,328.933 250.269,319.766 262.5,314.5 Z"/></g>
<g><path style="opacity:1" fill="#15726a" d="M 781.5,318.5 C 785.648,318.453 787.148,320.453 786,324.5C 779.866,326.665 773.699,328.831 767.5,331C 764.554,334.491 765.388,336.658 770,337.5C 775.808,335.756 781.642,334.089 787.5,332.5C 789.978,333.796 791.145,335.796 791,338.5C 785.32,340.753 779.487,342.586 773.5,344C 761.233,345.641 756.733,340.474 760,328.5C 761.167,327.333 762.333,326.167 763.5,325C 769.571,322.701 775.571,320.535 781.5,318.5 Z"/></g>
<g><path style="opacity:1" fill="#f9fafa" d="M 509.5,320.5 C 518.787,320.296 527.62,321.962 536,325.5C 539.337,338.995 534.17,344.662 520.5,342.5C 514.631,342.812 508.964,341.979 503.5,340C 499.605,334.806 499.771,329.64 504,324.5C 506.167,323.512 508,322.179 509.5,320.5 Z"/></g>
<g><path style="opacity:1" fill="#fafbfb" d="M 455.5,323.5 C 461.993,323.718 468.327,324.884 474.5,327C 481.823,333.694 480.823,338.694 471.5,342C 464.819,342.334 458.153,342.834 451.5,343.5C 443.235,342.955 439.735,338.622 441,330.5C 445.594,327.48 450.427,325.146 455.5,323.5 Z"/></g>
<g><path style="opacity:1" fill="#15726a" d="M 185.5,330.5 C 195.207,332.843 204.874,335.343 214.5,338C 213.993,340.566 212.826,342.733 211,344.5C 207.892,343.807 204.892,342.807 202,341.5C 201.5,341.833 201,342.167 200.5,342.5C 199.626,344.747 199.292,347.08 199.5,349.5C 203.325,349.885 206.991,350.885 210.5,352.5C 209.652,354.409 209.318,356.409 209.5,358.5C 200.193,356.173 190.859,353.84 181.5,351.5C 180.231,349.305 180.231,347.139 181.5,345C 184.761,345.643 188.094,345.976 191.5,346C 193.636,343.432 193.636,341.098 191.5,339C 188.832,338.433 186.166,337.933 183.5,337.5C 183.394,334.921 184.061,332.588 185.5,330.5 Z"/></g>
<g><path style="opacity:1" fill="#13726a" d="M 732.5,340.5 C 734.614,341.36 735.78,343.027 736,345.5C 739.412,358.109 737.079,369.442 729,379.5C 722.264,365.76 723.431,352.76 732.5,340.5 Z"/></g>
<g><path style="opacity:1" fill="#0f7169" d="M 252.5,343.5 C 253.649,343.791 254.316,344.624 254.5,346C 252.621,360.375 244.955,370.209 231.5,375.5C 231.703,364.262 236.37,355.095 245.5,348C 247.898,346.476 250.231,344.976 252.5,343.5 Z"/></g>
<g><path style="opacity:1" fill="#12716a" d="M 771.5,396.5 C 771.737,395.209 771.404,394.209 770.5,393.5C 769.756,390.05 771.09,388.384 774.5,388.5C 774.5,385.5 774.5,382.5 774.5,379.5C 772.5,379.5 770.5,379.5 768.5,379.5C 768.817,374.846 768.15,370.346 766.5,366C 769.985,363.348 773.318,360.515 776.5,357.5C 772.855,356.713 769.188,356.546 765.5,357C 764.331,354.993 763.665,352.827 763.5,350.5C 773.543,349.157 783.543,347.49 793.5,345.5C 794.802,351.444 795.302,357.444 795,363.5C 791.319,366.36 787.152,367.193 782.5,366C 781.667,365.167 780.833,364.333 780,363.5C 777.129,367.031 773.629,369.864 769.5,372C 779.327,374.629 789.327,376.129 799.5,376.5C 799.777,379.448 799.444,382.281 798.5,385C 789.474,388.848 780.474,392.682 771.5,396.5 Z"/></g>
<g><path style="opacity:1" fill="#e9efee" d="M 784.5,353.5 C 789.159,353.015 790.492,354.848 788.5,359C 783.165,359.536 781.832,357.702 784.5,353.5 Z"/></g>
<g><path style="opacity:1" fill="#107169" d="M 182.5,358.5 C 184.167,358.5 185.833,358.5 187.5,358.5C 187.799,360.604 187.466,362.604 186.5,364.5C 182.352,367.765 182.685,370.598 187.5,373C 191.167,373.667 194.833,373.667 198.5,373C 200.211,371.867 200.711,370.367 200,368.5C 198.649,366.981 197.149,365.648 195.5,364.5C 196.667,362.833 197.833,361.167 199,359.5C 208.847,364.413 210.013,370.913 202.5,379C 193.44,381.97 185.273,380.47 178,374.5C 174.994,367.771 176.494,362.438 182.5,358.5 Z"/></g>
<g><path style="opacity:1" fill="#0f7169" d="M 740.5,373.5 C 741.496,373.414 742.329,373.748 743,374.5C 746.864,388.873 743.531,401.206 733,411.5C 729.092,401.164 729.758,391.164 735,381.5C 737.054,378.953 738.887,376.286 740.5,373.5 Z"/></g>
<g><path style="opacity:1" fill="#7ca29d" d="M 244.5,375.5 C 244.56,374.957 244.893,374.624 245.5,374.5C 246.803,377.645 246.803,380.645 245.5,383.5C 245.806,380.615 245.473,377.948 244.5,375.5 Z"/></g>
<g><path style="opacity:1" fill="#0f7169" d="M 244.5,375.5 C 245.473,377.948 245.806,380.615 245.5,383.5C 243.853,395.152 237.853,403.819 227.5,409.5C 225.714,394.406 231.38,383.073 244.5,375.5 Z"/></g>
<g><path style="opacity:1" fill="#087068" d="M 340.5,379.5 C 395.838,379.498 451.171,379.998 506.5,381C 513.505,381.434 520.505,381.934 527.5,382.5C 554.302,379.048 581.135,378.714 608,381.5C 609.436,381.441 610.769,381.108 612,380.5C 621.447,381.297 630.947,382.131 640.5,383C 643.167,384 645.833,385 648.5,386C 649.894,386.956 650.561,388.289 650.5,390C 650.929,398.568 646.929,402.901 638.5,403C 612.164,404.15 585.831,404.317 559.5,403.5C 535.836,405.022 512.169,405.355 488.5,404.5C 462.856,406.592 437.189,406.925 411.5,405.5C 387.116,406.479 362.783,408.146 338.5,410.5C 334.463,410.228 330.629,409.228 327,407.5C 325.409,400.608 325.076,393.608 326,386.5C 330.431,383.2 335.264,380.867 340.5,379.5 Z"/></g>
<g><path style="opacity:1" fill="#96b2af" d="M 787.5,381.5 C 785.5,381.5 783.5,381.5 781.5,381.5C 781.5,382.5 781.5,383.5 781.5,384.5C 780.566,383.432 780.232,382.099 780.5,380.5C 783.059,380.198 785.393,380.532 787.5,381.5 Z"/></g>
<g><path style="opacity:1" fill="#f2f5f5" d="M 787.5,381.5 C 788.552,381.351 789.552,381.517 790.5,382C 787.488,382.78 784.655,383.947 782,385.5C 781.601,385.272 781.435,384.938 781.5,384.5C 781.5,383.5 781.5,382.5 781.5,381.5C 783.5,381.5 785.5,381.5 787.5,381.5 Z"/></g>
<g><path style="opacity:1" fill="#17736b" d="M 177.5,384.5 C 179.167,384.5 180.833,384.5 182.5,384.5C 182.968,387.942 181.802,390.609 179,392.5C 178.517,393.448 178.351,394.448 178.5,395.5C 179.873,395.657 181.207,395.49 182.5,395C 185.009,385.079 191.009,382.079 200.5,386C 205.447,390.985 205.78,396.319 201.5,402C 198.794,403.908 195.794,404.741 192.5,404.5C 192.5,402.167 192.5,399.833 192.5,397.5C 195.278,397.978 197.278,396.978 198.5,394.5C 197.213,391.719 195.213,391.052 192.5,392.5C 188.979,403.203 182.812,405.203 174,398.5C 173.333,395.167 173.333,391.833 174,388.5C 174.69,386.65 175.856,385.316 177.5,384.5 Z"/></g>
<g><path style="opacity:1" fill="#8eada9" d="M 793.5,397.5 C 794.622,396.844 795.955,396.511 797.5,396.5C 799.333,396.585 800.666,397.252 801.5,398.5C 798.946,397.612 796.279,397.279 793.5,397.5 Z"/></g>
<g><path style="opacity:1" fill="#0c7068" d="M 777.5,397.5 C 782.833,397.5 788.167,397.5 793.5,397.5C 796.279,397.279 798.946,397.612 801.5,398.5C 801.5,400.167 801.5,401.833 801.5,403.5C 795.171,403.9 788.838,404.233 782.5,404.5C 781.167,404.5 779.833,404.5 778.5,404.5C 778.198,407.059 778.532,409.393 779.5,411.5C 779.5,412.833 779.5,414.167 779.5,415.5C 776.833,415.5 774.167,415.5 771.5,415.5C 771.5,411.833 771.5,408.167 771.5,404.5C 771.5,402.5 771.5,400.5 771.5,398.5C 773.735,398.795 775.735,398.461 777.5,397.5 Z"/></g>
<g><path style="opacity:1" fill="#c8d5d3" d="M 770.5,393.5 C 771.404,394.209 771.737,395.209 771.5,396.5C 773.265,397.461 775.265,397.795 777.5,397.5C 775.735,398.461 773.735,398.795 771.5,398.5C 771.5,400.5 771.5,402.5 771.5,404.5C 770.518,401.038 770.185,397.371 770.5,393.5 Z"/></g>
<g><path style="opacity:1" fill="#85a7a3" d="M 782.5,404.5 C 781.791,405.404 780.791,405.737 779.5,405.5C 779.5,407.5 779.5,409.5 779.5,411.5C 779.5,409.5 779.5,407.5 779.5,405.5C 780.791,405.737 781.791,405.404 782.5,404.5 Z"/></g>
<g><path style="opacity:1" fill="#14726a" d="M 240.5,406.5 C 244.381,421.517 240.048,433.85 227.5,443.5C 224.068,428.464 228.401,416.131 240.5,406.5 Z"/></g>
<g><path style="opacity:1" fill="#17736b" d="M 746.5,406.5 C 749.985,421.567 745.485,433.9 733,443.5C 729.685,428.276 734.185,415.943 746.5,406.5 Z"/></g>
<g><path style="opacity:1" fill="#077068" d="M 172.5,429.5 C 172.5,426.167 172.5,422.833 172.5,419.5C 174.5,419.5 176.5,419.5 178.5,419.5C 178.185,423.371 178.518,427.038 179.5,430.5C 180.833,430.5 182.167,430.5 183.5,430.5C 183.5,426.833 183.5,423.167 183.5,419.5C 185.5,419.5 187.5,419.5 189.5,419.5C 189.5,423.167 189.5,426.833 189.5,430.5C 191.5,430.5 193.5,430.5 195.5,430.5C 195.5,426.5 195.5,422.5 195.5,418.5C 197.833,418.5 200.167,418.5 202.5,418.5C 202.5,424.833 202.5,431.167 202.5,437.5C 192.5,437.5 182.5,437.5 172.5,437.5C 172.5,434.833 172.5,432.167 172.5,429.5 Z"/></g>
<g><path style="opacity:1" fill="#c7d5d3" d="M 179.5,430.5 C 178.518,427.038 178.185,423.371 178.5,419.5C 176.5,419.5 174.5,419.5 172.5,419.5C 172.5,422.833 172.5,426.167 172.5,429.5C 171.518,426.038 171.185,422.371 171.5,418.5C 174.167,418.5 176.833,418.5 179.5,418.5C 179.5,422.5 179.5,426.5 179.5,430.5 Z"/></g>
<g><path style="opacity:1" fill="#056f67" d="M 416.5,423.5 C 489.171,423.311 561.838,423.811 634.5,425C 639.833,425.667 645.167,426.333 650.5,427C 654.79,429.531 655.623,433.031 653,437.5C 649.618,442.781 644.784,445.948 638.5,447C 602.828,447.414 567.162,448.081 531.5,449C 524.537,451.33 522.704,455.83 526,462.5C 527.167,463.667 528.333,464.833 529.5,466C 566.5,466.333 603.5,466.667 640.5,467C 647.908,468.072 653.408,471.906 657,478.5C 658.183,482.274 657.349,485.441 654.5,488C 634.991,488.25 615.491,488.75 596,489.5C 591.667,489.167 587.333,488.833 583,488.5C 514.505,489.495 446.005,489.995 377.5,490C 373.961,489.664 371.794,487.831 371,484.5C 368.248,475.481 371.415,470.314 380.5,469C 412.814,467.216 445.147,465.882 477.5,465C 482.769,463.894 488.103,463.227 493.5,463C 497.539,459.137 498.372,454.637 496,449.5C 494.933,448.809 493.766,448.309 492.5,448C 472.993,447.72 453.493,447.22 434,446.5C 410.843,448.344 387.677,449.844 364.5,451C 361.272,452.563 359.105,455.063 358,458.5C 355.676,472.057 354.509,485.724 354.5,499.5C 356.354,525.12 355.354,550.62 351.5,576C 350.377,579.08 348.711,581.747 346.5,584C 338.827,585.946 331.16,585.946 323.5,584C 322.299,583.097 321.465,581.931 321,580.5C 320.333,559.5 320.333,538.5 321,517.5C 322.951,494.853 324.618,472.187 326,449.5C 327.892,438.27 334.392,431.103 345.5,428C 351.782,426.675 358.115,425.675 364.5,425C 382.005,424.832 399.338,424.332 416.5,423.5 Z"/></g>
<g><path style="opacity:1" fill="#19736b" d="M 777.5,428.5 C 778.833,428.5 780.167,428.5 781.5,428.5C 781.5,430.833 781.5,433.167 781.5,435.5C 775.767,436.584 775.267,438.584 780,441.5C 780.833,441.167 781.667,440.833 782.5,440.5C 785.915,429.646 792.082,427.646 801,434.5C 802.426,439.757 801.259,444.257 797.5,448C 795.866,448.494 794.199,448.66 792.5,448.5C 792.328,445.016 793.328,442.016 795.5,439.5C 795.444,438.263 794.944,437.263 794,436.5C 791.587,439.062 789.92,442.062 789,445.5C 783.075,450.907 777.409,450.574 772,444.5C 769.059,437.406 770.892,432.072 777.5,428.5 Z"/></g>
<g><path style="opacity:1" fill="#117169" d="M 240.5,438.5 C 245.778,453.076 242.945,466.076 232,477.5C 226.486,462.649 229.32,449.649 240.5,438.5 Z"/></g>
<g><path style="opacity:1" fill="#107169" d="M 729.5,474.5 C 728.527,472.052 728.194,469.385 728.5,466.5C 730.48,454.879 736.647,446.212 747,440.5C 748.267,453.136 744.1,463.636 734.5,472C 732.922,473.094 731.255,473.928 729.5,474.5 Z"/></g>
<g><path style="opacity:1" fill="#19736b" d="M 173.5,442.5 C 175.833,442.5 178.167,442.5 180.5,442.5C 180.5,444.5 180.5,446.5 180.5,448.5C 187.188,448.098 193.855,447.431 200.5,446.5C 203.987,447.427 205.32,449.76 204.5,453.5C 197.144,453.947 189.811,454.614 182.5,455.5C 182.5,458.167 182.5,460.833 182.5,463.5C 179.833,463.5 177.167,463.5 174.5,463.5C 174.422,456.485 174.089,449.485 173.5,442.5 Z"/></g>
<g><path style="opacity:1" fill="#16726b" d="M 775.5,452.5 C 781.678,452.107 787.678,452.94 793.5,455C 800.017,459.245 801.183,464.745 797,471.5C 794.581,473.585 791.747,474.585 788.5,474.5C 788.643,472.738 788.309,471.071 787.5,469.5C 789.646,468.444 791.312,466.944 792.5,465C 792.223,463.108 791.223,461.775 789.5,461C 785.572,459.675 781.572,459.342 777.5,460C 774.353,464.048 775.353,466.715 780.5,468C 778.143,474.638 774.643,475.138 770,469.5C 766.644,461.937 768.477,456.27 775.5,452.5 Z"/></g>
<g><path style="opacity:1" fill="#18736b" d="M 203.5,458.5 C 204.809,459.624 205.475,461.124 205.5,463C 204.46,465.351 203.126,467.518 201.5,469.5C 202.156,471.453 202.489,473.453 202.5,475.5C 204.167,475.5 205.833,475.5 207.5,475.5C 207.993,477.806 208.326,480.139 208.5,482.5C 198.828,481.8 189.161,480.966 179.5,480C 177.764,478.061 176.764,475.728 176.5,473C 185.502,468.166 194.502,463.332 203.5,458.5 Z"/></g>
<g><path style="opacity:1" fill="#7ca19d" d="M 728.5,466.5 C 728.194,469.385 728.527,472.052 729.5,474.5C 729.44,475.043 729.107,475.376 728.5,475.5C 727.197,472.355 727.197,469.355 728.5,466.5 Z"/></g>
<g><path style="opacity:1" fill="#ecf0f0" d="M 192.5,470.5 C 193.5,470.5 194.5,470.5 195.5,470.5C 195.5,471.833 195.5,473.167 195.5,474.5C 192.482,474.665 189.482,474.498 186.5,474C 188.727,473.059 190.727,471.892 192.5,470.5 Z"/></g>
<g><path style="opacity:1" fill="#19736c" d="M 244.5,470.5 C 252.002,484.449 250.835,497.783 241,510.5C 234.076,496.429 235.243,483.096 244.5,470.5 Z"/></g>
<g><path style="opacity:1" fill="#0e7169" d="M 741.5,474.5 C 741.979,489.752 734.979,500.418 720.5,506.5C 720.309,495.375 724.642,486.208 733.5,479C 736.391,477.726 739.058,476.226 741.5,474.5 Z"/></g>
<g><path style="opacity:1" fill="#117169" d="M 766.5,475.5 C 775.472,477.394 784.472,479.228 793.5,481C 795.787,482.427 796.12,484.261 794.5,486.5C 793.333,486.833 792.167,487.167 791,487.5C 782.431,485.99 773.931,484.323 765.5,482.5C 765.993,480.194 766.326,477.861 766.5,475.5 Z"/></g>
<g><path style="opacity:1" fill="#14726a" d="M 197.5,485.5 C 209.022,484.187 213.855,489.187 212,500.5C 210.437,503.728 207.937,505.895 204.5,507C 198.094,508.352 191.761,509.852 185.5,511.5C 185.007,509.194 184.674,506.861 184.5,504.5C 191.571,503.319 198.405,501.319 205,498.5C 206.073,494.905 204.739,492.905 201,492.5C 194.828,494.102 188.662,495.768 182.5,497.5C 180.997,495.204 180.663,492.871 181.5,490.5C 187.14,489.43 192.473,487.764 197.5,485.5 Z"/></g>
<g><path style="opacity:1" fill="#16726b" d="M 764.5,486.5 C 773.683,489.088 782.85,491.754 792,494.5C 791.696,500.682 790.363,506.682 788,512.5C 786.301,511.594 784.467,511.261 782.5,511.5C 782.85,508.278 783.517,505.112 784.5,502C 784.466,498.835 783.133,498.002 780.5,499.5C 779.577,502.447 778.911,505.447 778.5,508.5C 776.5,508.167 774.5,507.833 772.5,507.5C 772.531,504.041 773.198,500.708 774.5,497.5C 772.696,496.232 770.696,495.565 768.5,495.5C 767.833,499.167 767.167,502.833 766.5,506.5C 764.139,506.326 761.806,505.993 759.5,505.5C 761.01,499.126 762.677,492.792 764.5,486.5 Z"/></g>
<g><path style="opacity:1" fill="#0b7068" d="M 252.5,502.5 C 254.708,503.894 256.208,505.894 257,508.5C 260.987,520.01 259.987,531.01 254,541.5C 249.376,535.684 247.209,529.017 247.5,521.5C 247.278,514.586 248.945,508.253 252.5,502.5 Z"/></g>
<g><path style="opacity:1" fill="#13726a" d="M 732.5,507.5 C 733.376,507.369 734.043,507.702 734.5,508.5C 730.814,523.519 721.481,532.853 706.5,536.5C 709.621,521.719 718.288,512.052 732.5,507.5 Z"/></g>
<g><path style="opacity:1" fill="#117169" d="M 757.5,508.5 C 767.221,511.296 776.888,514.296 786.5,517.5C 786.414,519.677 785.747,521.677 784.5,523.5C 778.441,524.506 772.441,525.672 766.5,527C 771.446,528.816 776.446,530.316 781.5,531.5C 781.327,534.179 780.327,536.513 778.5,538.5C 769.833,535.167 761.167,531.833 752.5,528.5C 751.617,526.262 751.95,524.095 753.5,522C 759.515,521.465 765.515,520.799 771.5,520C 766.986,517.882 762.319,516.049 757.5,514.5C 756.769,512.599 756.769,510.599 757.5,508.5 Z"/></g>
<g><path style="opacity:1" fill="#0c7068" d="M 205.5,510.5 C 210.447,509.628 214.613,510.961 218,514.5C 219.793,518.046 221.293,521.713 222.5,525.5C 213.47,529.456 204.303,533.122 195,536.5C 191.809,531.263 190.476,525.596 191,519.5C 195.016,515.081 199.849,512.081 205.5,510.5 Z"/></g>
<g><path style="opacity:1" fill="#066f67" d="M 455.5,510.5 C 459.054,510.15 462.388,510.816 465.5,512.5C 466.129,524.859 466.963,537.192 468,549.5C 469.579,551.041 471.413,552.208 473.5,553C 479.71,554.722 486.043,555.722 492.5,556C 515.182,556.207 537.849,556.04 560.5,555.5C 570.781,556.928 581.114,558.095 591.5,559C 597.094,559.916 602.094,562.083 606.5,565.5C 609.007,574.826 605.674,580.992 596.5,584C 572.828,584.684 549.161,584.517 525.5,583.5C 517.145,583.642 508.812,584.142 500.5,585C 473.82,585.16 447.153,585.326 420.5,585.5C 410.024,585.566 399.691,584.399 389.5,582C 388.069,581.535 386.903,580.701 386,579.5C 384.667,576.833 383.333,574.167 382,571.5C 381.333,568.167 380.667,564.833 380,561.5C 379.333,548.833 379.333,536.167 380,523.5C 384.526,512.085 392.693,508.585 404.5,513C 405.667,514.167 406.833,515.333 408,516.5C 409.006,521.611 409.506,526.778 409.5,532C 409.015,538.842 408.848,545.676 409,552.5C 410.478,556.48 413.312,558.146 417.5,557.5C 421.947,557.244 426.28,556.411 430.5,555C 432,554.167 433.167,553 434,551.5C 434.467,540.155 435.134,528.821 436,517.5C 440.483,515.079 445.316,513.745 450.5,513.5C 452.336,512.604 454.003,511.604 455.5,510.5 Z"/></g>
<g><path style="opacity:1" fill="#026f67" d="M 500.5,512.5 C 543.47,512.456 586.47,512.623 629.5,513C 640.61,513.736 650.11,517.902 658,525.5C 659.383,528.859 660.716,532.193 662,535.5C 661.811,547.172 661.144,558.839 660,570.5C 658.091,574.315 656.758,578.315 656,582.5C 645.018,586.883 635.018,585.216 626,577.5C 625.786,567.747 624.786,558.081 623,548.5C 619.386,542.937 614.219,539.77 607.5,539C 590.537,537.878 573.537,537.378 556.5,537.5C 538.16,537.574 519.827,537.907 501.5,538.5C 497.081,538.564 492.748,538.064 488.5,537C 487.236,535.139 486.236,533.139 485.5,531C 486.444,525.279 488.111,519.779 490.5,514.5C 493.977,513.833 497.311,513.166 500.5,512.5 Z"/></g>
<g><path style="opacity:1" fill="#f2f5f5" d="M 205.5,517.5 C 207.527,517.338 209.527,517.505 211.5,518C 213.421,519.241 213.754,520.741 212.5,522.5C 207.966,524.735 203.3,526.235 198.5,527C 197.446,525.612 197.28,524.112 198,522.5C 200.17,520.177 202.67,518.51 205.5,517.5 Z"/></g>
<g><path style="opacity:1" fill="#107169" d="M 264.5,531.5 C 272.831,539.694 275.998,549.694 274,561.5C 273.605,565.019 272.605,568.352 271,571.5C 261.059,559.481 258.892,546.148 264.5,531.5 Z"/></g>
<g><path style="opacity:1" fill="#0c7068" d="M 766.5,559.5 C 764.5,559.5 762.5,559.5 760.5,559.5C 760.5,558.167 760.5,556.833 760.5,555.5C 762.035,553.948 763.869,552.615 766,551.5C 766.682,547.82 765.182,545.32 761.5,544C 758.649,542.392 755.649,541.726 752.5,542C 749.803,545.082 750.136,547.915 753.5,550.5C 752.5,552.167 751.167,553.5 749.5,554.5C 741.558,548.325 741.558,542.159 749.5,536C 758.342,534.503 765.842,537.003 772,543.5C 775.282,550.747 773.449,556.081 766.5,559.5 Z"/></g>
<g><path style="opacity:1" fill="#0e7169" d="M 715.5,539.5 C 717.527,539.338 719.527,539.505 721.5,540C 716.095,554.069 705.928,562.236 691,564.5C 694.568,551.765 702.734,543.431 715.5,539.5 Z"/></g>
<g><path style="opacity:1" fill="#117169" d="M 221.5,528.5 C 222.496,528.414 223.329,528.748 224,529.5C 226.336,532.987 225.836,535.987 222.5,538.5C 223.333,540.167 224.167,541.833 225,543.5C 227,544.167 229,544.833 231,545.5C 232.713,549.095 234.547,552.595 236.5,556C 234.167,559.667 231.833,563.333 229.5,567C 229.833,567.5 230.167,568 230.5,568.5C 233.445,566.444 236.612,564.777 240,563.5C 241.649,564.786 242.815,566.453 243.5,568.5C 235.368,573.737 227.035,578.737 218.5,583.5C 215.764,579.704 213.264,575.704 211,571.5C 210.609,563.562 214.442,560.062 222.5,561C 224.997,562.983 226.164,562.15 226,558.5C 227.793,555.705 229.96,553.205 232.5,551C 223.464,551.504 214.464,552.671 205.5,554.5C 204.5,554.333 203.5,554.167 202.5,554C 201.373,552.247 200.373,550.413 199.5,548.5C 207.153,542.181 214.486,535.514 221.5,528.5 Z"/></g>
<g><path style="opacity:1" fill="#dce5e4" d="M 215.5,542.5 C 217.121,542.787 218.121,543.787 218.5,545.5C 216.058,546.994 213.391,547.994 210.5,548.5C 210.167,548.167 209.833,547.833 209.5,547.5C 211.571,545.815 213.571,544.148 215.5,542.5 Z"/></g>
<g><path style="opacity:1" fill="#16726a" d="M 738.5,553.5 C 747.346,557.508 755.846,562.175 764,567.5C 762.213,573.415 759.546,579.082 756,584.5C 754.082,583.458 752.249,582.292 750.5,581C 751.874,578.417 753.374,575.917 755,573.5C 755.833,570.333 754.667,569.167 751.5,570C 750.206,572.087 749.039,574.254 748,576.5C 745.374,577.77 743.207,577.104 741.5,574.5C 743.167,571.833 744.833,569.167 746.5,566.5C 745.135,565.059 743.635,563.726 742,562.5C 740.149,566.213 737.816,569.547 735,572.5C 733.205,571.705 731.705,570.538 730.5,569C 733.313,563.874 735.979,558.707 738.5,553.5 Z"/></g>
<g><path style="opacity:1" fill="#a1bab7" d="M 760.5,555.5 C 760.5,556.833 760.5,558.167 760.5,559.5C 762.5,559.5 764.5,559.5 766.5,559.5C 764.393,560.468 762.059,560.802 759.5,560.5C 759.216,558.585 759.549,556.919 760.5,555.5 Z"/></g>
<g><path style="opacity:1" fill="#0c7068" d="M 280.5,559.5 C 292.437,569.966 296.271,582.966 292,598.5C 280.582,587.842 276.748,574.842 280.5,559.5 Z"/></g>
<g><path style="opacity:1" fill="#ebf0f0" d="M 218.5,567.5 C 225.592,568.597 226.092,570.931 220,574.5C 217.697,572.453 217.197,570.119 218.5,567.5 Z"/></g>
<g><path style="opacity:1" fill="#117169" d="M 694.5,568.5 C 697.898,568.18 701.232,568.513 704.5,569.5C 697.181,582.993 685.847,589.493 670.5,589C 675.624,578.703 683.624,571.869 694.5,568.5 Z"/></g>
<g><path style="opacity:1" fill="#16726b" d="M 241.5,574.5 C 253.157,576.972 256.657,583.638 252,594.5C 246.541,600.818 239.707,603.651 231.5,603C 228.96,600.795 226.793,598.295 225,595.5C 223.802,591.191 224.802,587.524 228,584.5C 229.333,585.833 230.667,587.167 232,588.5C 230.612,592.721 232.112,595.387 236.5,596.5C 241.852,595.175 245.518,592.008 247.5,587C 246.825,582.954 244.658,581.454 241,582.5C 240.667,584.047 241.167,585.38 242.5,586.5C 241.472,588.361 239.972,589.695 238,590.5C 235.833,587.667 233.667,584.833 231.5,582C 234.734,579.252 238.068,576.752 241.5,574.5 Z"/></g>
<g><path style="opacity:1" fill="#16726b" d="M 727.5,574.5 C 731.05,574.133 734.05,575.133 736.5,577.5C 735.752,579.332 734.752,580.999 733.5,582.5C 728.554,580.439 726.554,582.106 727.5,587.5C 729.199,587.66 730.866,587.494 732.5,587C 740.547,580.002 746.547,581.335 750.5,591C 749.282,598.565 744.949,601.899 737.5,601C 736.317,598.845 736.65,596.845 738.5,595C 740.433,594.749 742.266,594.249 744,593.5C 744.684,592.216 744.517,591.049 743.5,590C 740.014,591.101 736.681,592.767 733.5,595C 726.024,595.867 721.691,592.533 720.5,585C 721.732,580.686 724.065,577.186 727.5,574.5 Z"/></g>
<g><path style="opacity:1" fill="#107169" d="M 299.5,585.5 C 313.072,593.995 318.572,606.328 316,622.5C 303.657,613.331 298.157,600.998 299.5,585.5 Z"/></g>
<g><path style="opacity:1" fill="#0f7169" d="M 670.5,595.5 C 684.431,593.25 686.431,596.417 676.5,605C 667.761,611.314 658.095,613.481 647.5,611.5C 653.013,602.975 660.679,597.641 670.5,595.5 Z"/></g>
<g><path style="opacity:1" fill="#0e7169" d="M 322.5,608.5 C 336.912,615.33 343.579,626.663 342.5,642.5C 329.155,635.149 322.488,623.815 322.5,608.5 Z"/></g>
<g><path style="opacity:1" fill="#14726a" d="M 258.5,617.5 C 267.549,617.701 270.215,621.868 266.5,630C 257.956,633.322 254.123,630.489 255,621.5C 256.376,620.295 257.542,618.962 258.5,617.5 Z"/></g>
<g><path style="opacity:1" fill="#107169" d="M 716.5,617.5 C 726.818,617.322 729.151,621.489 723.5,630C 716.001,631.822 712.501,628.989 713,621.5C 714.032,619.973 715.199,618.64 716.5,617.5 Z"/></g>
<g><path style="opacity:1" fill="#15726a" d="M 642.5,618.5 C 648.334,618.05 654.001,618.717 659.5,620.5C 649.151,632.403 636.484,635.903 621.5,631C 627.366,624.741 634.366,620.574 642.5,618.5 Z"/></g>
<g><path style="opacity:1" fill="#127169" d="M 348.5,628.5 C 363.087,633.757 371.42,644.09 373.5,659.5C 358.149,654.817 349.816,644.483 348.5,628.5 Z"/></g>
<g><path style="opacity:1" fill="#107169" d="M 611.5,637.5 C 619.093,637.052 626.426,638.219 633.5,641C 621.36,651.009 608.026,653.009 593.5,647C 598.892,642.473 604.892,639.306 611.5,637.5 Z"/></g>
<g><path style="opacity:1" fill="#19736b" d="M 288.5,642.5 C 292.285,644.903 295.952,647.57 299.5,650.5C 301.5,649.167 303.167,647.5 304.5,645.5C 309.329,647.873 309.329,650.707 304.5,654C 308.167,657 311.833,660 315.5,663C 311.703,667.448 308.036,671.948 304.5,676.5C 301.174,673.402 297.674,670.402 294,667.5C 291.333,670.833 288.667,674.167 286,677.5C 284.229,676.696 282.729,675.529 281.5,674C 284.06,670.949 286.393,667.782 288.5,664.5C 285.71,661.061 282.377,658.228 278.5,656C 282.436,651.904 285.77,647.404 288.5,642.5 Z"/></g>
<g><path style="opacity:1" fill="#0f7169" d="M 376.5,645.5 C 390.026,647.852 399.192,655.518 404,668.5C 404.781,669.944 404.614,671.277 403.5,672.5C 388.773,669.106 379.773,660.106 376.5,645.5 Z"/></g>
<g><path style="opacity:1" fill="#1d746c" d="M 679.5,671.5 C 681.86,673.865 683.86,676.532 685.5,679.5C 684.855,680.646 684.022,681.646 683,682.5C 674.98,673.648 667.147,664.648 659.5,655.5C 661.984,653.517 664.317,651.35 666.5,649C 668.112,648.28 669.612,648.446 671,649.5C 672.351,647.981 673.851,646.648 675.5,645.5C 675.112,643.641 675.112,641.641 675.5,639.5C 680.575,640.506 684.742,638.839 688,634.5C 689.833,636.833 691.667,639.167 693.5,641.5C 691.442,646.395 688.108,650.228 683.5,653C 680.827,652.563 678.66,653.73 677,656.5C 670.961,648.394 670.127,649.061 674.5,658.5C 676.246,659.395 678.08,660.062 680,660.5C 684.668,655.366 690.168,650.366 696.5,645.5C 697.646,646.145 698.646,646.978 699.5,648C 697.981,649.351 696.648,650.851 695.5,652.5C 696.982,654.483 698.649,656.316 700.5,658C 702.638,657.919 702.971,656.919 701.5,655C 707.069,652.566 708.903,654.399 707,660.5C 705.289,663.58 702.789,664.746 699.5,664C 696.794,661.629 694.461,658.963 692.5,656C 691.668,655.312 691.002,655.479 690.5,656.5C 692.944,659.054 694.611,662.054 695.5,665.5C 694.622,668.13 693.955,670.797 693.5,673.5C 691.571,673.769 689.905,673.269 688.5,672C 691.433,667.431 690.933,663.264 687,659.5C 685.926,660.618 684.76,661.618 683.5,662.5C 685.963,665.335 686.13,668.335 684,671.5C 682.586,672.413 681.086,672.413 679.5,671.5 Z"/></g>
<g><path style="opacity:1" fill="#dfe7e6" d="M 685.5,641.5 C 687.103,641.312 688.437,641.812 689.5,643C 685.908,645.713 682.408,648.547 679,651.5C 678.308,650.975 677.808,650.308 677.5,649.5C 680.521,647.146 683.188,644.479 685.5,641.5 Z"/></g>
<g><path style="opacity:1" fill="#f0f4f3" d="M 289.5,649.5 C 292.245,650.738 294.579,652.571 296.5,655C 293.282,660.633 289.948,660.467 286.5,654.5C 287.952,653.06 288.952,651.394 289.5,649.5 Z"/></g>
<g><path style="opacity:1" fill="#0d7069" d="M 577.5,652.5 C 586.742,651.715 595.408,653.548 603.5,658C 599.817,661.34 595.484,663.34 590.5,664C 580.781,665.761 571.781,664.094 563.5,659C 568.034,656.333 572.7,654.166 577.5,652.5 Z"/></g>
<g><path style="opacity:1" fill="#117169" d="M 405.5,658.5 C 416.529,658.258 425.695,662.591 433,671.5C 435.324,674.48 436.824,677.813 437.5,681.5C 422.265,679.899 411.599,672.232 405.5,658.5 Z"/></g>
<g><path style="opacity:1" fill="#ccd9d7" d="M 666.5,654.5 C 669.32,656.478 670.82,659.145 671,662.5C 669.285,660.241 667.452,658.074 665.5,656C 666.056,655.617 666.389,655.117 666.5,654.5 Z"/></g>
<g><path style="opacity:1" fill="#f0f4f4" d="M 300.5,658.5 C 303.286,659.789 305.619,661.622 307.5,664C 306.708,665.96 305.375,667.46 303.5,668.5C 301.091,667.299 299.091,665.633 297.5,663.5C 298.763,661.971 299.763,660.305 300.5,658.5 Z"/></g>
<g><path style="opacity:1" fill="#1b736c" d="M 323.5,662.5 C 333.721,667.279 343.721,672.612 353.5,678.5C 347.485,688.536 341.485,698.536 335.5,708.5C 326.431,702.303 317.098,696.637 307.5,691.5C 313.112,681.94 318.445,672.273 323.5,662.5 Z"/></g>
<g><path style="opacity:1" fill="#15726a" d="M 542.5,662.5 C 552.165,661.888 561.165,664.055 569.5,669C 570.357,669.689 571.023,670.522 571.5,671.5C 562.897,675.766 553.897,676.599 544.5,674C 539.876,672.69 535.876,670.356 532.5,667C 535.946,665.491 539.28,663.991 542.5,662.5 Z"/></g>
<g><path style="opacity:1" fill="#1a736b" d="M 642.5,663.5 C 644.47,665.647 646.303,667.98 648,670.5C 650.748,668.542 653.582,666.709 656.5,665C 659.914,664.243 660.914,665.41 659.5,668.5C 656.053,670.207 653.053,672.373 650.5,675C 651.289,676.626 652.289,678.126 653.5,679.5C 656.086,677.957 658.586,676.291 661,674.5C 663.952,676.193 664.118,678.026 661.5,680C 659.336,680.914 657.336,682.081 655.5,683.5C 656.552,686.735 658.552,688.569 661.5,689C 665.084,686.959 668.584,684.792 672,682.5C 672.956,683.579 673.789,684.745 674.5,686C 664.167,692.5 653.833,699 643.5,705.5C 641.876,704.131 641.376,702.464 642,700.5C 646.456,698.027 650.623,695.194 654.5,692C 653.527,689.88 652.194,688.047 650.5,686.5C 647.864,687.971 645.364,689.637 643,691.5C 641.916,690.335 641.083,689.002 640.5,687.5C 643.205,685.488 645.872,683.488 648.5,681.5C 646.313,676.597 643.48,676.263 640,680.5C 639.501,684.152 639.335,687.818 639.5,691.5C 637.833,691.5 636.167,691.5 634.5,691.5C 634.849,685.031 634.183,678.698 632.5,672.5C 633.93,672.579 635.264,672.246 636.5,671.5C 637.916,676.323 639.916,676.49 642.5,672C 641.38,670.263 640.38,668.429 639.5,666.5C 640.34,665.265 641.34,664.265 642.5,663.5 Z"/></g>
<g><path style="opacity:1" fill="#e6eceb" d="M 679.5,671.5 C 676.835,669.36 674.502,666.86 672.5,664C 679.219,662.662 681.553,665.162 679.5,671.5 Z"/></g>
<g><path style="opacity:1" fill="#13726a" d="M 436.5,665.5 C 452.002,665.248 463.668,671.748 471.5,685C 455.362,686.269 443.695,679.769 436.5,665.5 Z"/></g>
<g><path style="opacity:1" fill="#117169" d="M 506.5,668.5 C 519.038,667.119 529.704,670.786 538.5,679.5C 537.619,680.971 536.286,681.804 534.5,682C 521.086,684.46 509.753,680.794 500.5,671C 502.611,670.155 504.611,669.322 506.5,668.5 Z"/></g>
<g><path style="opacity:1" fill="#16726a" d="M 469.5,669.5 C 480.034,668.833 489.7,671.333 498.5,677C 501.206,679.371 503.539,682.037 505.5,685C 490.077,688.416 477.744,683.749 468.5,671C 469.056,670.617 469.389,670.117 469.5,669.5 Z"/></g>
<g><path style="opacity:1" fill="#ebf0ef" d="M 324.5,672.5 C 324.414,673.496 324.748,674.329 325.5,675C 327.664,675.914 329.664,677.081 331.5,678.5C 331.113,679.72 330.28,680.387 329,680.5C 327.333,679.833 325.667,679.167 324,678.5C 322.831,679.009 321.998,679.842 321.5,681C 323.641,682.308 325.641,683.808 327.5,685.5C 326.917,687.002 326.084,688.335 325,689.5C 322.913,688.206 320.746,687.039 318.5,686C 317.978,685.439 317.645,684.772 317.5,684C 319.476,679.869 321.809,676.036 324.5,672.5 Z"/></g>
<g><path style="opacity:1" fill="#17726b" d="M 622.5,696.5 C 619.742,695.239 616.742,694.406 613.5,694C 613.056,692.467 612.723,690.967 612.5,689.5C 609.711,690.648 607.044,691.981 604.5,693.5C 605.5,694.167 606.5,694.833 607.5,695.5C 606.17,699.472 603.837,702.472 600.5,704.5C 599.527,704.013 598.527,703.513 597.5,703C 599.787,700.93 601.453,698.43 602.5,695.5C 598.5,694.167 597.167,695.5 598.5,699.5C 597.38,701.596 595.88,701.93 594,700.5C 593.069,698.541 592.236,696.541 591.5,694.5C 595.966,691.788 600.633,689.454 605.5,687.5C 602.55,684.235 603.217,682.735 607.5,683C 608.966,683.635 610.3,684.469 611.5,685.5C 615.5,683.833 619.5,682.167 623.5,680.5C 624.926,682.937 626.259,685.437 627.5,688C 626.109,689.02 624.609,689.853 623,690.5C 620.96,685.735 618.127,685.402 614.5,689.5C 618.027,690.921 621.694,691.588 625.5,691.5C 625.5,693.167 625.5,694.833 625.5,696.5C 624.5,696.5 623.5,696.5 622.5,696.5 Z"/></g>
<g><path style="opacity:1" fill="#e1e9e8" d="M 324.5,672.5 C 324.572,670.689 325.405,669.356 327,668.5C 333.323,672.15 339.657,675.817 346,679.5C 343.585,685.664 340.585,691.664 337,697.5C 336.626,696.584 336.126,695.75 335.5,695C 336.334,692.327 337.667,689.993 339.5,688C 338.387,686.606 337.053,685.439 335.5,684.5C 334.255,683.045 334.422,681.711 336,680.5C 338.25,681.708 340.417,683.041 342.5,684.5C 343.888,683.409 344.388,682.076 344,680.5C 339.074,677.286 333.907,674.452 328.5,672C 327.072,671.421 325.738,671.588 324.5,672.5 Z"/></g>
<g><path style="opacity:1" fill="#18736b" d="M 358.5,682.5 C 362.439,684.648 366.605,686.315 371,687.5C 372.293,684.99 374.126,684.323 376.5,685.5C 377.645,686.776 377.645,688.109 376.5,689.5C 380.701,691.623 385.035,693.457 389.5,695C 388.116,698.319 386.45,701.485 384.5,704.5C 381.19,702.559 380.523,699.893 382.5,696.5C 379.421,696.196 376.587,695.196 374,693.5C 372.071,695.685 372.571,697.351 375.5,698.5C 373.369,704.552 374.869,706.219 380,703.5C 381.084,704.665 381.917,705.998 382.5,707.5C 379.833,708.833 377.167,710.167 374.5,711.5C 375.868,715.37 378.202,718.536 381.5,721C 379.697,721.637 378.364,722.803 377.5,724.5C 369.959,716.965 367.959,708.131 371.5,698C 369.255,698.195 367.422,699.362 366,701.5C 364.132,704.605 362.965,707.938 362.5,711.5C 364.582,711.528 366.416,710.861 368,709.5C 368.798,711.259 368.631,712.926 367.5,714.5C 363.833,715.833 360.167,717.167 356.5,718.5C 355.359,716.579 355.192,714.579 356,712.5C 357.814,710.285 358.314,707.952 357.5,705.5C 354.904,706.482 352.238,707.149 349.5,707.5C 349.579,706.07 349.246,704.736 348.5,703.5C 356.52,701.991 363.186,698.158 368.5,692C 366.091,690.293 363.425,689.46 360.5,689.5C 360.853,691.635 360.02,692.968 358,693.5C 356.5,693.333 355.667,692.5 355.5,691C 356.409,688.105 357.409,685.272 358.5,682.5 Z"/></g>
<g><path style="opacity:1" fill="#bbcdcb" d="M 331.5,687.5 C 334.113,688.095 334.113,688.929 331.5,690C 332.982,693.757 332.316,694.257 329.5,691.5C 330.18,690.14 330.847,688.807 331.5,687.5 Z"/></g>
<g><path style="opacity:1" fill="#e3eae9" d="M 622.5,696.5 C 622.5,697.167 622.5,697.833 622.5,698.5C 619.811,698.042 617.144,698.709 614.5,700.5C 613.416,699.335 612.583,698.002 612,696.5C 610.989,697.337 609.822,697.67 608.5,697.5C 608.815,699.226 608.981,700.893 609,702.5C 606.095,703.703 603.262,705.036 600.5,706.5C 600.5,705.833 600.5,705.167 600.5,704.5C 603.837,702.472 606.17,699.472 607.5,695.5C 606.5,694.833 605.5,694.167 604.5,693.5C 607.044,691.981 609.711,690.648 612.5,689.5C 612.723,690.967 613.056,692.467 613.5,694C 616.742,694.406 619.742,695.239 622.5,696.5 Z"/></g>
<g><path style="opacity:1" fill="#17726b" d="M 569.5,713.5 C 569.694,711.088 571.027,710.088 573.5,710.5C 573.149,707.762 572.482,705.096 571.5,702.5C 569.205,701.864 567.539,700.531 566.5,698.5C 572.76,695.267 579.427,693.267 586.5,692.5C 586.5,693.833 586.5,695.167 586.5,696.5C 585.5,696.5 584.5,696.5 583.5,696.5C 584.167,699.833 584.833,703.167 585.5,706.5C 586.93,706.579 588.264,706.246 589.5,705.5C 590.415,706.328 591.081,707.328 591.5,708.5C 589.947,709.439 588.613,710.606 587.5,712C 588.583,716.753 589.916,721.42 591.5,726C 590.615,728.157 588.948,728.99 586.5,728.5C 585.986,723.29 584.653,718.29 582.5,713.5C 581.675,712.614 580.675,712.281 579.5,712.5C 580.172,719.139 579.172,725.472 576.5,731.5C 575.467,732.452 574.3,732.452 573,731.5C 571.902,730.616 571.402,729.616 571.5,728.5C 568.452,729.346 565.452,730.346 562.5,731.5C 561.015,727.899 559.682,724.233 558.5,720.5C 556.461,721.359 555.128,720.526 554.5,718C 556.053,713.953 557.053,709.787 557.5,705.5C 553.162,707.665 551.162,706.331 551.5,701.5C 556.009,701.29 560.342,700.29 564.5,698.5C 567.463,702.231 566.463,703.898 561.5,703.5C 561.5,705.833 561.5,708.167 561.5,710.5C 563.806,710.007 566.139,709.674 568.5,709.5C 568.232,711.099 568.566,712.432 569.5,713.5 Z"/></g>
<g><path style="opacity:1" fill="#e5ebea" d="M 314.5,688.5 C 321.635,692.235 328.635,696.235 335.5,700.5C 334.635,701.583 333.635,701.749 332.5,701C 326.5,697.667 320.5,694.333 314.5,691C 313.402,690.23 313.402,689.397 314.5,688.5 Z"/></g>
<g><path style="opacity:1" fill="#19736b" d="M 399.5,709.5 C 399.337,711.857 399.503,714.19 400,716.5C 401.039,715.756 401.539,714.756 401.5,713.5C 402.84,707.808 404.34,702.142 406,696.5C 407.509,697.09 409.009,697.756 410.5,698.5C 407.537,707.684 405.204,717.018 403.5,726.5C 405.124,726.64 406.29,725.973 407,724.5C 409.022,715.746 411.355,707.079 414,698.5C 415.356,699.38 416.856,699.714 418.5,699.5C 416.51,706.452 415.01,713.452 414,720.5C 417.394,716.102 420.394,711.435 423,706.5C 424.298,707.56 425.465,708.726 426.5,710C 423.686,715.802 420.02,720.969 415.5,725.5C 414.522,725.023 413.689,724.357 413,723.5C 411.013,725.679 411.18,727.512 413.5,729C 416.432,729.953 419.432,730.453 422.5,730.5C 422.709,732.714 421.876,734.381 420,735.5C 408.986,732.121 397.819,729.455 386.5,727.5C 386.233,725.029 387.233,723.362 389.5,722.5C 392.338,724.102 395.338,724.602 398.5,724C 399.406,722.301 399.739,720.467 399.5,718.5C 398.07,718.421 396.736,718.754 395.5,719.5C 394.709,713.164 394.042,706.83 393.5,700.5C 395.5,700.5 397.5,700.5 399.5,700.5C 399.5,703.5 399.5,706.5 399.5,709.5 Z"/></g>
<g><path style="opacity:1" fill="#1e756d" d="M 622.5,698.5 C 623.145,702.286 624.645,705.62 627,708.5C 627.772,708.355 628.439,708.022 629,707.5C 629.494,705.866 629.66,704.199 629.5,702.5C 631.167,702.5 632.833,702.5 634.5,702.5C 634.664,705.187 634.497,707.854 634,710.5C 630.498,712.789 626.831,713.789 623,713.5C 618.646,700.165 615.313,700.498 613,714.5C 611.016,717.483 608.683,720.15 606,722.5C 604.51,721.683 603.01,720.85 601.5,720C 606.589,717.309 609.256,713.143 609.5,707.5C 606.646,707.924 603.979,708.924 601.5,710.5C 600.738,709.372 600.071,708.205 599.5,707C 599.728,706.601 600.062,706.435 600.5,706.5C 603.262,705.036 606.095,703.703 609,702.5C 608.981,700.893 608.815,699.226 608.5,697.5C 609.822,697.67 610.989,697.337 612,696.5C 612.583,698.002 613.416,699.335 614.5,700.5C 617.144,698.709 619.811,698.042 622.5,698.5 Z"/></g>
<g><path style="opacity:1" fill="#e1e8e7" d="M 576.5,698.5 C 577.5,698.5 578.5,698.5 579.5,698.5C 579.959,701.877 580.626,705.211 581.5,708.5C 580.022,708.762 578.689,708.429 577.5,707.5C 575.986,704.509 575.653,701.509 576.5,698.5 Z"/></g>
<g><path style="opacity:1" fill="#20756e" d="M 447.5,725.5 C 447.586,726.496 447.252,727.329 446.5,728C 449.039,728.796 451.372,728.629 453.5,727.5C 454.833,727.5 456.167,727.5 457.5,727.5C 458.173,720.114 459.173,712.781 460.5,705.5C 461.833,705.5 463.167,705.5 464.5,705.5C 463.751,712.492 463.084,719.492 462.5,726.5C 464.167,726.5 465.833,726.5 467.5,726.5C 467.938,730.908 465.938,732.575 461.5,731.5C 460.886,735.135 460.552,738.802 460.5,742.5C 458.833,742.5 457.167,742.5 455.5,742.5C 455.833,739.833 456.167,737.167 456.5,734.5C 457.404,733.791 457.737,732.791 457.5,731.5C 455.265,731.205 453.265,731.539 451.5,732.5C 448.455,732.508 445.455,732.841 442.5,733.5C 442.38,731.266 442.713,729.099 443.5,727C 442.648,725.102 441.981,725.269 441.5,727.5C 440.625,731.787 440.292,736.121 440.5,740.5C 438.833,740.5 437.167,740.5 435.5,740.5C 435.675,736.459 435.842,732.459 436,728.5C 434.649,730.019 433.149,731.352 431.5,732.5C 430.756,731.009 430.09,729.509 429.5,728C 432.731,725.273 435.397,722.106 437.5,718.5C 435.604,717.534 433.604,717.201 431.5,717.5C 431.215,715.712 431.548,714.045 432.5,712.5C 434.409,713.348 436.409,713.682 438.5,713.5C 438.5,712.167 438.5,710.833 438.5,709.5C 436.833,709.5 435.167,709.5 433.5,709.5C 433.714,707.856 433.38,706.356 432.5,705C 437.866,704.677 443.199,704.177 448.5,703.5C 448.286,705.144 448.62,706.644 449.5,708C 447.527,708.495 445.527,708.662 443.5,708.5C 443.5,710.5 443.5,712.5 443.5,714.5C 444.833,714.5 446.167,714.5 447.5,714.5C 447.238,715.978 447.571,717.311 448.5,718.5C 449.451,717.674 450.451,717.508 451.5,718C 453.213,719.378 454.547,721.045 455.5,723C 454.601,724.236 453.434,725.07 452,725.5C 449.855,723.355 447.688,721.188 445.5,719C 444.552,718.517 443.552,718.351 442.5,718.5C 442.5,719.5 442.5,720.5 442.5,721.5C 445.344,721.343 447.011,722.676 447.5,725.5 Z"/></g>
<g><path style="opacity:1" fill="#1c746c" d="M 544.5,715.5 C 544.5,713.833 544.5,712.167 544.5,710.5C 542.901,710.232 541.568,710.566 540.5,711.5C 537.14,711.616 533.807,711.949 530.5,712.5C 530.286,714.144 530.62,715.644 531.5,717C 529.899,717.273 528.399,717.773 527,718.5C 526.882,715.629 526.216,712.962 525,710.5C 522.432,715.999 523.432,720.666 528,724.5C 528.674,723.422 529.674,722.755 531,722.5C 537.531,721.622 544.031,720.622 550.5,719.5C 550.5,720.833 550.5,722.167 550.5,723.5C 547.944,723.132 545.944,723.966 544.5,726C 545.322,728.434 545.656,730.934 545.5,733.5C 546.5,733.5 547.5,733.5 548.5,733.5C 548.5,732.5 548.5,731.5 548.5,730.5C 550.167,730.5 551.833,730.5 553.5,730.5C 553.113,737.382 549.447,739.882 542.5,738C 541.557,733.854 540.557,729.687 539.5,725.5C 539.759,732.611 536.925,737.945 531,741.5C 529.726,740.465 528.56,739.298 527.5,738C 532.994,736.136 534.994,732.302 533.5,726.5C 529.241,726.102 527.408,728.102 528,732.5C 525.378,736.047 523.045,736.047 521,732.5C 521.317,735.746 521.483,739.08 521.5,742.5C 520.178,742.33 519.011,742.663 518,743.5C 516.166,731.49 514.332,719.49 512.5,707.5C 516.24,707.759 519.906,707.426 523.5,706.5C 524.799,707.09 525.632,708.09 526,709.5C 528.74,708.718 531.574,708.218 534.5,708C 531.844,705.771 532.177,703.938 535.5,702.5C 536.685,703.853 538.019,705.02 539.5,706C 542.426,706.218 545.26,706.718 548,707.5C 548.667,709.833 548.667,712.167 548,714.5C 546.989,715.337 545.822,715.67 544.5,715.5 Z"/></g>
<g><path style="opacity:1" fill="#0e7169" d="M 483.5,715.5 C 482.711,715.783 482.044,716.283 481.5,717C 486.833,717.667 492.167,717.667 497.5,717C 496.748,716.329 496.414,715.496 496.5,714.5C 497.824,711.851 499.158,709.184 500.5,706.5C 505.043,708.137 505.71,710.803 502.5,714.5C 501.733,715.172 501.066,716.005 500.5,717C 502.81,717.497 505.143,717.663 507.5,717.5C 507.5,720.5 507.5,723.5 507.5,726.5C 506.167,726.5 504.833,726.5 503.5,726.5C 503.5,724.833 503.5,723.167 503.5,721.5C 498.5,721.5 493.5,721.5 488.5,721.5C 485.167,721.5 481.833,721.5 478.5,721.5C 477.566,722.568 477.232,723.901 477.5,725.5C 476.167,725.5 474.833,725.5 473.5,725.5C 473.5,722.833 473.5,720.167 473.5,717.5C 475.924,717.808 478.257,717.474 480.5,716.5C 480.376,715.893 480.043,715.56 479.5,715.5C 478.559,713.534 477.559,711.534 476.5,709.5C 477.76,708.618 478.926,707.618 480,706.5C 482.995,709.099 484.161,712.099 483.5,715.5 Z"/></g>
<g><path style="opacity:1" fill="#1a736c" d="M 490.5,715.5 C 489.833,715.5 489.167,715.5 488.5,715.5C 488.613,712.951 487.946,710.618 486.5,708.5C 487.786,706.429 489.453,706.096 491.5,707.5C 492.214,709.811 493.214,711.978 494.5,714C 493.099,714.41 491.766,714.91 490.5,715.5 Z"/></g>
<g><path style="opacity:1" fill="#24766e" d="M 451.5,707.5 C 453.584,709.077 455.584,710.91 457.5,713C 456,713.833 454.833,715 454,716.5C 450.334,713.871 449.501,710.871 451.5,707.5 Z"/></g>
<g><path style="opacity:1" fill="#8aaaa6" d="M 399.5,709.5 C 400.167,710.833 400.833,712.167 401.5,713.5C 401.539,714.756 401.039,715.756 400,716.5C 399.503,714.19 399.337,711.857 399.5,709.5 Z"/></g>
<g><path style="opacity:1" fill="#1c746c" d="M 543.5,713.5 C 543.5,714.833 543.5,716.167 543.5,717.5C 541.901,717.232 540.568,717.566 539.5,718.5C 537.208,718.244 535.041,718.577 533,719.5C 532.333,718.167 532.333,716.833 533,715.5C 536.364,714.261 539.864,713.594 543.5,713.5 Z"/></g>
<g><path style="opacity:1" fill="#9fb9b5" d="M 540.5,711.5 C 541.568,710.566 542.901,710.232 544.5,710.5C 544.5,712.167 544.5,713.833 544.5,715.5C 544.5,716.5 544.5,717.5 544.5,718.5C 542.833,718.5 541.167,718.5 539.5,718.5C 540.568,717.566 541.901,717.232 543.5,717.5C 543.5,716.167 543.5,714.833 543.5,713.5C 543.179,711.952 542.179,711.285 540.5,711.5 Z"/></g>
<g><path style="opacity:1" fill="#a9bfbc" d="M 496.5,714.5 C 496.414,715.496 496.748,716.329 497.5,717C 492.167,717.667 486.833,717.667 481.5,717C 482.044,716.283 482.711,715.783 483.5,715.5C 485.167,716.833 486.833,716.833 488.5,715.5C 489.167,715.5 489.833,715.5 490.5,715.5C 492.683,716.843 494.683,716.51 496.5,714.5 Z"/></g>
<g><path style="opacity:1" fill="#e7edec" d="M 562.5,715.5 C 563.675,715.281 564.675,715.614 565.5,716.5C 566.642,719.399 567.308,722.399 567.5,725.5C 566.325,725.719 565.325,725.386 564.5,724.5C 563.577,721.553 562.911,718.553 562.5,715.5 Z"/></g>
<g><path style="opacity:1" fill="#e2e9e9" d="M 569.5,713.5 C 570.222,713.918 570.722,714.584 571,715.5C 572.714,714.075 574.047,714.408 575,716.5C 576.04,720.533 575.374,724.199 573,727.5C 571.765,722.816 570.598,718.149 569.5,713.5 Z"/></g>
<g><path style="opacity:1" fill="#abc1bf" d="M 479.5,715.5 C 480.043,715.56 480.376,715.893 480.5,716.5C 478.257,717.474 475.924,717.808 473.5,717.5C 473.5,720.167 473.5,722.833 473.5,725.5C 474.833,725.5 476.167,725.5 477.5,725.5C 477.232,723.901 477.566,722.568 478.5,721.5C 478.5,723.167 478.5,724.833 478.5,726.5C 476.5,726.5 474.5,726.5 472.5,726.5C 472.5,723.167 472.5,719.833 472.5,716.5C 475.059,716.802 477.393,716.468 479.5,715.5 Z"/></g>
<g><path style="opacity:1" fill="#b1c5c2" d="M 502.5,714.5 C 503.918,716.308 505.918,716.975 508.5,716.5C 508.813,720.042 508.479,723.375 507.5,726.5C 507.5,723.5 507.5,720.5 507.5,717.5C 505.143,717.663 502.81,717.497 500.5,717C 501.066,716.005 501.733,715.172 502.5,714.5 Z"/></g>
<g><path style="opacity:1" fill="#cedad9" d="M 488.5,721.5 C 493.5,721.5 498.5,721.5 503.5,721.5C 503.5,723.167 503.5,724.833 503.5,726.5C 502.566,725.432 502.232,724.099 502.5,722.5C 501.209,722.263 500.209,722.596 499.5,723.5C 492.833,723.5 486.167,723.5 479.5,723.5C 482.5,722.833 485.5,722.167 488.5,721.5 Z"/></g>
<g><path style="opacity:1" fill="#19736b" d="M 479.5,723.5 C 486.167,723.5 492.833,723.5 499.5,723.5C 501.823,726.001 501.156,728.001 497.5,729.5C 496.957,729.56 496.624,729.893 496.5,730.5C 500.315,731.808 503.981,731.808 507.5,730.5C 508.451,731.919 508.784,733.585 508.5,735.5C 503.833,735.5 499.167,735.5 494.5,735.5C 495.475,742.864 492.475,745.531 485.5,743.5C 484.754,742.264 484.421,740.93 484.5,739.5C 486.167,739.5 487.833,739.5 489.5,739.5C 489.5,738.167 489.5,736.833 489.5,735.5C 483.833,735.5 478.167,735.5 472.5,735.5C 472.5,733.833 472.5,732.167 472.5,730.5C 476.514,730.666 480.514,730.499 484.5,730C 485.167,729.333 485.833,728.667 486.5,728C 484.19,727.503 481.857,727.337 479.5,727.5C 479.5,726.167 479.5,724.833 479.5,723.5 Z"/></g>
<g><path style="opacity:1" fill="#e0e8e7" d="M 517.5,711.5 C 519.26,714.701 520.094,718.367 520,722.5C 522.559,723.444 524.059,725.278 524.5,728C 523.667,730.5 522.167,731 520,729.5C 518.71,723.554 517.877,717.554 517.5,711.5 Z"/></g>
<g><path style="opacity:1" fill="#a5bdba" d="M 447.5,725.5 C 449.114,727.075 451.114,727.741 453.5,727.5C 451.372,728.629 449.039,728.796 446.5,728C 447.252,727.329 447.586,726.496 447.5,725.5 Z"/></g>
<g><path style="opacity:1" fill="#c0d0ce" d="M 488.5,728.5 C 489.601,727.402 490.934,727.235 492.5,728C 491.318,729.768 489.985,729.935 488.5,728.5 Z"/></g>
<g><path style="opacity:1" fill="#739c97" d="M 497.5,729.5 C 500.625,730.479 503.958,730.813 507.5,730.5C 503.981,731.808 500.315,731.808 496.5,730.5C 496.624,729.893 496.957,729.56 497.5,729.5 Z"/></g>
<g><path style="opacity:1" fill="#8caca8" d="M 451.5,732.5 C 453.265,731.539 455.265,731.205 457.5,731.5C 457.737,732.791 457.404,733.791 456.5,734.5C 455.448,732.744 453.781,732.077 451.5,732.5 Z"/></g>
</svg>
